<svg width="154" height="8" viewBox="0 0 154 8" fill="none" xmlns="http://www.w3.org/2000/svg">
<path d="M0.301107 4.3252C0.301107 5.79795 1.49501 6.99186 2.96777 6.99186C4.44053 6.99186 5.63444 5.79795 5.63444 4.3252C5.63444 2.85244 4.44053 1.65853 2.96777 1.65853C1.49501 1.65853 0.301107 2.85244 0.301107 4.3252ZM153.855 4.67875C154.05 4.48349 154.05 4.1669 153.855 3.97164L150.673 0.789661C150.477 0.594399 150.161 0.594399 149.965 0.789661C149.77 0.984924 149.77 1.30151 149.965 1.49677L152.794 4.3252L149.965 7.15362C149.77 7.34888 149.77 7.66547 149.965 7.86073C150.161 8.05599 150.477 8.05599 150.673 7.86073L153.855 4.67875ZM2.96777 4.8252H153.501V3.8252H2.96777V4.8252Z" fill="white"/>
</svg>
