<svg width="46" height="53" viewBox="0 0 46 53" fill="none" xmlns="http://www.w3.org/2000/svg">
<g clip-path="url(#clip0_2766_782)">
<path d="M31.1729 14.9076C35.9818 18.6416 39.0733 25.0966 39.7889 32.2173C40.9625 31.9568 42.0503 31.5515 42.9663 30.6542C44.0254 29.5543 44.0826 28.628 43.1666 27.3544C43.4243 27.1517 43.6533 26.9781 43.8822 26.7754C44.5979 26.2255 45.0845 25.5308 45.3135 24.6913C45.5425 23.823 45.4566 22.9835 44.5406 22.5204C44.9127 21.9125 45.3421 21.3915 45.5997 20.7836C45.8287 20.3205 45.9719 19.7705 46.0005 19.2495C46.0291 18.3522 45.7142 17.5996 44.8555 17.2812C45.0272 16.3839 45.2562 15.5155 45.3994 14.6182C45.5711 13.605 44.9986 11.9551 43.7677 11.9262C43.9681 8.82897 42.1361 7.29483 40.9053 7.46851C40.7335 6.94748 40.6476 6.39751 40.4186 5.93437C40.1897 5.47124 39.9034 4.97916 39.5313 4.60286C38.5867 3.67659 37.6134 3.82132 36.8978 4.89232C36.3826 4.3134 35.8673 3.70554 35.3234 3.12662C34.8368 2.60559 34.2357 2.37402 33.5201 2.37402C32.7186 2.37402 32.4037 2.69243 32.4037 3.50291C32.3751 3.64764 32.4037 3.76343 32.4323 3.90816C32.9762 7.46851 32.4896 10.9131 31.4018 14.2997C31.3446 14.4155 31.2301 14.7339 31.1729 14.9076Z" fill="white"/>
<path d="M29.5407 40.9011C33.6627 39.6853 36.8401 37.2828 38.8152 33.3172C38.9011 33.1146 38.9297 32.912 38.9869 32.6804C38.9869 32.6515 38.9869 32.6515 38.9869 32.6515C38.8438 30.9726 38.5862 29.3516 38.1854 27.8464C35.4088 27.0649 31.9452 26.6307 29.3976 26.457C30.1991 28.0201 30.8861 29.5253 31.5159 30.8858C31.6017 31.0884 31.5445 31.3489 31.3441 31.4357C30.5999 31.841 29.7125 32.1304 28.7393 32.362C30.0274 34.9092 30.3422 37.9486 29.5407 40.9011Z" fill="white"/>
<path d="M28.9398 25.5884C31.4301 25.7331 34.9796 26.1384 37.928 26.891C36.6112 22.3754 34.2354 18.6124 30.8863 15.8047C29.5982 16.2389 26.5353 17.1941 22.7568 17.0204C25.2186 19.1624 27.2795 22.4044 28.9398 25.5884Z" fill="white"/>
<path d="M12.7955 50.6561C12.8528 50.8877 14.3413 51.264 15.1427 50.8877C15.8297 50.9745 16.0015 51.3508 17.8049 51.264C17.3182 51.7271 16.8316 51.8718 16.2877 51.9297C15.6866 51.9587 15.2 52.1613 14.9424 52.9428C15.2286 53.0876 15.7152 52.9718 16.0301 52.856C17.0892 52.5376 18.1197 52.1613 19.1788 51.8429C19.4651 51.7561 19.78 51.7561 20.0948 51.6982C21.3829 51.5824 21.9554 50.8877 22.0986 50.8298C22.6997 51.3219 24.1023 51.5824 24.9038 51.1192C23.7016 50.5403 23.2722 50.2798 22.8428 49.8746C22.2417 49.2667 22.1844 47.501 22.5852 46.8352C22.5852 46.8352 23.3008 45.3301 23.6443 44.4906C27.6804 43.738 28.7395 40.5829 28.7395 40.5829C29.4551 37.7752 29.1403 34.9095 27.8521 32.5649C26.793 32.7386 25.7053 32.8544 24.5317 32.8544C22.4993 32.8544 20.3238 32.5649 18.2915 31.957C18.2628 31.986 18.2915 31.986 18.2628 31.986C16.6312 34.5043 16.345 38.0936 16.7457 40.8145C16.7457 40.8145 17.3469 43.2459 20.3525 44.0564C20.2093 45.3011 20.5242 44.9538 19.9517 48.7746C19.093 49.7298 16.4595 48.6299 15.6866 49.3246C15.7725 49.4693 17.3182 49.8746 17.4614 50.0482C16.8316 50.193 12.7383 50.0772 12.7955 50.6561Z" fill="white"/>
<path d="M21.2971 16.934C19.8659 16.7603 18.3774 16.4419 16.8603 15.863C16.4023 15.6893 16.0302 15.4867 15.7153 15.1973C13.3967 15.342 11.3357 16.4709 10.1621 18.4103C8.47323 21.218 9.30335 24.7205 12.3662 27.7598C16.8317 32.1596 25.9057 33.0858 30.5716 30.857C28.4533 26.2546 25.4191 19.8865 21.2971 16.934Z" fill="white"/>
<path d="M7.21338 35.1412C9.07399 37.8043 13.2246 40.3515 16.0012 40.7567C15.6004 37.92 15.9153 34.3597 17.5469 31.6967C15.3714 30.9441 13.3391 29.8441 11.8506 28.3389C9.10262 25.6759 8.01487 22.6366 8.70187 19.8867C6.98438 20.1183 3.43491 21.0156 3.26316 21.0735C3.03416 26.139 4.20778 30.8572 7.21338 35.1412Z" fill="white"/>
<path d="M3.29199 20.1756C4.98085 19.6546 7.70021 19.0757 8.93107 18.9888C9.0742 18.5836 9.24594 18.3231 9.47494 17.9468C10.6772 15.8916 12.7954 14.6469 15.1426 14.3864C14.1694 12.5628 13.1675 10.7392 12.1657 8.91563C12.0798 8.7709 11.9939 8.62617 11.908 8.48145C9.01694 9.06036 7.38533 11.2892 4.26523 12.3891C4.35111 13.9812 3.66411 16.3547 3.40649 18.5546C3.37787 19.1046 3.32062 19.6546 3.29199 20.1756Z" fill="white"/>
<path d="M0.00030681 7.1501C0.0861811 7.43956 0.944924 7.41061 1.54604 7.43956C1.3743 8.27899 1.28842 9.06053 1.71779 9.87101C2.11854 10.6526 3.06316 11.1446 3.6929 10.7394C3.72153 10.7394 4.06502 11.6367 4.06502 11.6367C6.64125 10.9131 8.64499 8.33688 11.4788 7.72902C10.8777 6.74485 10.1907 5.81858 9.30336 5.06599C8.61636 4.51602 7.84349 4.08183 7.07062 3.5608C7.12787 3.47396 7.21375 3.30029 7.29962 3.15556C7.67174 2.43191 7.78624 1.73721 7.24237 1.04251C7.042 0.781993 6.95613 0.463587 6.813 0.145182C6.01151 -0.289007 5.61076 0.289912 5.12414 0.839885C4.98102 0.666209 4.98102 0.463587 4.75202 0.463587C4.52302 0.463587 4.46577 0.724101 4.29402 0.926722C4.12227 0.753047 4.12227 0.463587 3.86465 0.521479C3.4639 0.579371 3.5784 1.12934 3.40665 1.50564C3.23491 1.4188 3.09178 1.36091 2.94866 1.4188C2.66241 1.53459 2.66241 1.85299 2.51929 2.14245C2.29029 2.02667 2.17579 1.88194 2.00404 1.93983C1.91817 1.93983 1.91817 1.96878 1.88954 2.02667C1.71779 2.40296 1.60329 2.80821 1.43155 3.15556C0.944924 4.02394 0.515553 4.89231 1.08805 5.99226C0.658676 6.31067 -0.0569427 6.71591 0.00030681 7.1501Z" fill="white"/>
</g>
<defs>
<clipPath id="clip0_2766_782">
<rect width="46" height="53" fill="white"/>
</clipPath>
</defs>
</svg>
