<svg width="93" height="57" viewBox="0 0 93 57" fill="none" xmlns="http://www.w3.org/2000/svg">
<g clip-path="url(#clip0_2766_756)">
<path d="M90.0131 27.3969C90.0131 27.3683 89.9847 27.3396 89.9847 27.311C89.9847 27.2823 89.9847 27.2537 89.9847 27.225C90.0131 26.1073 90.0131 23.8721 89.9278 21.5221C89.5579 22.5825 89.1596 23.8147 89.1312 24.6745C89.1027 25.219 89.0174 26.0214 88.9321 26.9384C86.5708 27.0244 78.0076 27.9128 74.3377 35.3924C74.3377 35.4211 74.2808 35.507 74.2808 35.5357C74.2523 35.593 74.1954 35.679 74.167 35.7363C74.0816 35.8796 74.0247 35.9942 73.9678 36.1375C73.9394 36.0515 73.8825 35.9369 73.8541 35.8223C72.9721 32.6986 72.0333 28.5146 71.4928 23.3276C70.8669 17.5101 71.2367 10.3457 71.4074 7.62319C73.6834 7.19332 76.7559 6.56285 77.5524 6.47688C79.6008 6.24762 85.4328 7.82379 86.6561 7.85245C87.6234 7.8811 88.3346 8.16768 88.8752 8.56889C88.8752 8.56889 90.8666 9.80116 91.0088 10.317C91.4925 12.2371 91.7485 13.9852 91.7201 15.9626C91.6916 17.3668 91.8339 18.9716 91.7201 20.3758C91.4356 23.958 91.0088 34.6473 91.4071 37.3411C91.777 39.777 93.2279 43.2733 93.0003 45.6805C92.8011 47.6865 91.9477 45.5659 91.6632 44.6775C90.9804 42.4422 90.3545 39.2325 90.3545 36.9113C90.3261 33.4724 89.9847 30.2054 90.0416 27.4829C90.0131 27.4256 90.0131 27.4256 90.0131 27.3969Z" fill="white"/>
<path d="M70.4964 22.9548C69.5291 23.0981 66.9118 23.4133 62.7014 23.7286C62.5591 19.4872 62.4453 14.3575 62.4453 8.51136C65.2902 8.33942 68.3627 8.0815 69.3015 7.96687C69.586 7.93821 69.9843 7.88089 70.4395 7.79492C70.2688 10.632 69.9559 17.3379 70.4964 22.9548Z" fill="white"/>
<path d="M62.7305 24.6741C66.9409 24.3876 69.5867 24.0437 70.5824 23.9004C71.1514 29.0301 72.0902 33.1855 72.9721 36.2518C72.1187 36.1945 71.2936 36.1372 70.4117 36.0512C67.6237 35.7933 65.4047 36.0799 63.3563 36.3665C63.2994 35.2488 62.9865 31.0935 62.7305 24.6741Z" fill="white"/>
<path d="M54.2812 24.1299L53.6553 8.36816C55.3053 8.54011 56.6709 8.6834 57.2683 8.71206C58.0649 8.74071 59.7149 8.65474 61.5357 8.54011C61.5357 14.3863 61.621 19.516 61.7917 23.7573C59.6296 23.9293 57.1261 24.0439 54.2812 24.1299Z" fill="white"/>
<path d="M53.3415 24.1586C50.8664 24.216 48.1069 24.2733 45.1197 24.2446C44.124 16.7363 42.1041 10.1451 41.1084 7.19333C43.2421 7.16467 48.6474 7.79514 52.7156 8.25366L53.3415 24.1586Z" fill="white"/>
<path d="M44.2663 25.2182C44.6646 28.4852 44.7215 31.9241 44.6361 35.0764C42.5309 33.9301 38.2351 32.5832 30.9521 34.3887C32.5453 29.6888 32.2893 26.2499 32.1186 24.9316C36.5282 25.1036 40.5964 25.1896 44.2663 25.2182Z" fill="white"/>
<path d="M45.6327 35.707C45.6042 35.6783 45.6042 35.6783 45.5758 35.6783C45.6896 32.3827 45.6327 28.7432 45.2344 25.2469C45.4051 25.2469 45.5758 25.2469 45.7465 25.2469C48.6198 25.2469 51.2656 25.1896 53.6553 25.1323C53.7122 25.161 53.7691 25.2183 53.826 25.2183C53.826 25.2183 53.826 25.2183 53.8544 25.2183C53.9398 25.2183 53.9682 25.161 54.0251 25.1323C57.0123 25.0463 59.6012 24.9031 61.7917 24.7598C62.0193 31.1218 62.3607 35.3058 62.4461 36.538C60.8529 36.7673 59.3451 36.9679 57.752 36.8533C53.3993 36.5667 47.1974 36.0509 45.718 35.7356C45.718 35.707 45.6611 35.707 45.6327 35.707Z" fill="white"/>
<path d="M25.1774 6.67684C25.9171 6.67684 26.6283 6.53355 27.3964 6.53355C27.5956 6.53355 30.1275 6.41892 30.2129 6.39026L31.7776 6.10369C33.6268 5.73114 37.695 7.16402 40.1132 7.24999C41.0235 9.94381 43.1288 16.621 44.1529 24.3013C37.2114 24.2726 28.9611 23.986 19.4307 23.2696C18.691 22.6964 17.8944 22.1806 17.0979 21.6934C16.7849 21.4928 16.472 21.2922 16.1875 21.063C18.0082 18.9423 22.1334 13.8412 25.1774 6.67684Z" fill="white"/>
<path d="M-0.000225677 13.4977C0.113571 13.1825 0.227367 12.3228 1.82051 11.5204C3.27142 10.8039 6.59996 6.99246 6.59996 6.99246C7.33963 4.98643 8.4776 4.49925 9.10348 4.24133C7.93706 2.37858 8.27845 0 8.27845 0C8.27845 0 9.70091 2.6365 10.8389 3.41026C11.1234 3.32428 11.4079 3.26697 11.6923 3.23831C11.0665 1.92006 11.2941 0.429864 11.2941 0.429864C11.2941 0.429864 12.3467 2.52187 13.2286 3.15234C13.8545 3.15234 14.7648 3.23831 15.0209 3.41026C16.358 4.24133 17.5813 4.67119 19.0322 5.24434C19.8288 5.55958 20.5685 5.78884 21.4219 5.93213C22.3038 6.07542 23.1289 6.30468 23.9823 6.53394C24.0392 6.56259 24.1246 6.5626 24.1815 6.5626C21.1374 13.5837 17.1261 18.5415 15.3907 20.4902C14.4519 19.8024 13.5131 19.1433 12.4889 18.5988C10.8958 17.7677 9.13192 17.1946 7.39653 16.7934C5.83183 16.4208 4.29558 17.6531 2.75933 17.1086C1.82051 16.7647 1.42223 15.9336 0.654103 15.3605C0.170469 14.9593 -0.0571238 13.6983 -0.000225677 13.4977Z" fill="white"/>
<path d="M29.6722 54.0766C30.355 53.6467 31.4645 52.2998 31.5499 51.5834C31.6921 50.523 31.7205 49.1761 31.8059 48.0871C31.9766 45.5653 32.0619 43.5306 31.8628 41.0087C31.7205 39.2319 30.9809 37.5125 30.5541 35.793C30.5541 35.7644 30.5257 35.6497 30.4972 35.5065H30.5257C38.5199 33.3571 42.8726 35.0766 44.6364 36.1656C44.6364 36.3089 44.6364 36.4235 44.608 36.5381C44.4942 36.968 44.4088 37.3979 44.3804 37.7131C44.2097 39.4039 43.4985 42.0977 43.1571 42.8428C42.8157 43.5592 42.9295 50.7236 42.5596 51.0675C41.4217 52.1279 41.8484 52.8443 41.8484 52.8443C41.8484 52.8443 42.3036 54.0479 42.2182 55.0796C42.1614 55.6528 42.0191 56.054 41.4217 56.054C40.8242 56.054 38.5483 56.054 38.1785 56.054C37.4388 56.054 36.9552 55.968 37.6948 54.1339C38.15 53.0163 39.1173 52.9303 39.6009 50.8669C39.7432 50.2938 39.8854 45.8232 39.7432 45.0494C39.6009 44.2757 38.719 39.6332 38.4061 39.0027C37.8655 37.885 37.9793 36.968 37.6948 36.3089C37.5242 37.2832 37.2681 38.3436 37.2397 38.4868C36.756 40.3209 36.8983 42.2696 36.4431 44.1037C35.9879 45.9665 35.362 47.6573 34.9068 49.4914C34.6792 50.4084 34.8499 51.3828 34.5655 52.2712C34.3379 53.0163 33.0292 53.3601 33.4275 54.1052C33.712 54.6497 33.7404 56.5698 33.3706 56.7131C33.0008 56.8564 32.4318 56.8564 32.2895 56.885C32.1757 56.9137 31.4076 56.9423 30.5257 56.885C29.7576 56.8564 28.4489 56.885 28.5342 56.3405C28.6765 55.796 29.3308 54.2772 29.6722 54.0766Z" fill="white"/>
<path d="M31.152 24.8746C31.3227 25.9636 31.6925 29.6318 29.8433 34.6755C29.8149 34.6755 29.8149 34.6755 29.7864 34.6755C28.4209 34.1024 26.1734 34.2456 25.4053 32.125C24.4665 29.5458 22.6173 26.1355 20.6543 24.2441C24.3527 24.5594 27.8519 24.7313 31.152 24.8746Z" fill="white"/>
<path d="M75.1344 54.2778C75.8457 53.8193 76.1302 53.4181 76.3008 52.5583C76.5853 50.8675 77.1828 49.2341 77.2966 47.5146C77.4388 45.5659 77.0405 43.3592 76.3862 41.4965C76.0732 40.6081 75.6465 39.777 75.2482 38.946C75.1913 38.8027 74.8499 37.943 74.5654 37.2552C74.8784 36.4814 75.1344 35.8796 75.1913 35.765C78.5768 28.8585 86.5141 27.9701 88.8469 27.8555C88.7046 29.3743 88.5339 30.8932 88.5624 31.6669C88.5908 32.5267 88.5339 33.8449 88.5908 35.0199C88.9038 36.6534 89.2452 38.0576 89.3874 39.5191C89.5012 40.6081 89.5866 41.6684 89.5012 42.7574C89.4159 43.8178 89.1314 44.8494 88.9322 45.9098C88.7331 46.9701 87.9934 49.8072 87.9934 51.0108C87.9934 51.8992 86.7132 51.8419 87.1115 53.1028C87.3675 53.9052 87.2822 56.1405 86.2865 56.1405C85.6606 56.1405 85.9735 56.1692 85.0063 56.1405C84.1812 56.1119 82.7588 56.2265 82.4458 55.9399C82.1329 55.6534 83.0148 53.4754 83.4131 53.1601C83.8114 52.8449 84.6933 52.4437 85.0347 50.7242C85.1485 50.0938 85.689 48.1164 85.689 46.9701C85.689 45.8238 85.3761 43.3306 84.9778 42.2989C84.7218 41.6398 82.9295 39.863 82.1329 38.1149C81.9907 39.1752 81.82 40.4648 81.82 40.7227C81.82 41.1239 81.7346 43.9897 81.7346 44.5915C81.7346 45.1647 80.4829 48.0304 79.9708 49.4347C79.9708 49.4347 79.2311 51.0968 79.2311 51.7846C79.2311 52.4724 79.5156 53.2175 79.1742 53.7046C78.8328 54.1918 78.6621 54.3924 78.9182 55.2235C79.0604 55.682 78.8044 56.1405 78.6052 56.7423C78.5483 56.8856 77.7802 56.8856 77.2681 56.9143C76.5 56.943 76.4146 56.943 75.5327 56.9143C75.1344 56.9143 74.0818 56.9716 74.2241 56.3411C74.3379 55.9973 74.6792 54.5644 75.1344 54.2778Z" fill="white"/>
</g>
<defs>
<clipPath id="clip0_2766_756">
<rect width="93" height="57" fill="white"/>
</clipPath>
</defs>
</svg>
