<svg width="173" height="77" viewBox="0 0 173 77" fill="none" xmlns="http://www.w3.org/2000/svg">
<path d="M67.4369 56.561H60.9612L57.7021 76.6687H60.5953L61.5484 70.8057H65.5138L66.3647 76.6687H70.3811L67.4369 56.561ZM61.9824 68.1253L63.1567 60.8583H64.0672L65.1138 68.1253H61.9824Z" fill="white"/>
<path d="M112.084 56.561H105.609L102.35 76.6687H105.243L106.196 70.8057H110.161L111.012 76.6687H115.037L112.084 56.561ZM106.63 68.1253L107.804 60.8583H108.715L109.761 68.1253H106.63Z" fill="white"/>
<path d="M46.0368 59.5904H49.7044V76.6687H53.6187V59.5904H57.2862L57.3033 56.561H46.0283L46.0368 59.5904Z" fill="white"/>
<path d="M129.606 59.5904H133.274V76.6687H137.188V59.5904H140.856L140.873 56.561H129.598L129.606 59.5904Z" fill="white"/>
<path d="M89.3569 76.6687C91.3992 76.6687 98.6662 76.6687 100.572 76.6687L100.589 73.6138H99.5086L97.0069 56.561H90.344L87.6721 73.6138H86.5488L86.5573 76.6687H89.3569ZM92.6245 60.8583H93.5265L95.3731 73.6138H90.5568L92.6245 60.8583Z" fill="white"/>
<path d="M39.5093 76.8985C41.6112 76.9751 44.3086 76.3454 44.3086 76.3454L43.8491 73.7331C40.0454 74.4478 36.4034 73.5288 36.6927 66.6107C36.497 58.68 39.0158 58.9948 43.7725 59.7351L43.9087 56.5101C29.7235 52.1618 28.7024 76.405 39.5093 76.8985Z" fill="white"/>
<path d="M128.908 63.6323C128.798 54.7144 122.705 56.8248 117.506 56.5525V76.6601H121.403V70.644C124.832 70.7121 128.577 70.3887 128.908 63.6323ZM123.139 68.0316C122.824 68.0657 121.709 68.0571 121.403 68.0316V59.1308C121.803 59.1308 122.943 59.1478 123.199 59.1989C125.105 58.5692 125.3 68.4316 123.139 68.0316Z" fill="white"/>
<path d="M80.4476 64.4492H76.4567V56.561H72.585V76.6687H76.4567V67.1127H80.4476V76.6687H84.3449V56.561H80.4476V64.4492Z" fill="white"/>
<path d="M36.6693 29.9106H30.1937L26.9346 50.0183H29.8278L30.7808 44.1553H34.7462L35.5971 50.0183H39.6221L36.6693 29.9106ZM31.2063 41.4749L32.3806 34.2079H33.2911L34.3377 41.4749H31.2063Z" fill="white"/>
<path d="M64.8098 39.3135V50.0183H68.7411V29.9106H64.9714L60.5551 40.692H60.47V29.9106H56.5557V50.0183H60.2998L64.6906 39.3135H64.8098Z" fill="white"/>
<path d="M99.9286 39.3135V50.0183H103.851V29.9106H100.082L95.6739 40.692H95.5803V29.9106H91.666V50.0183H95.4187L99.801 39.3135H99.9286Z" fill="white"/>
<path d="M154.353 39.3135V50.0183H158.276V29.9106H154.507L150.099 40.692H150.005V29.9106H146.091V50.0183H149.843L154.226 39.3135H154.353Z" fill="white"/>
<path d="M9.81445 36.3268C14.0351 33.4251 11.8907 24.4562 6.54684 25.1625H0.751953C0.751953 26.039 0.751953 48.5038 0.751953 50.0184H6.7766C13.0906 51.0736 15.5838 38.9732 9.81445 36.3268ZM4.70031 27.843C6.81063 27.7409 8.28275 27.7834 8.4189 31.3488C8.28275 35.2121 7.10846 35.6035 4.70031 35.4163V27.843ZM6.51281 47.338H4.70031V38.1053L6.37666 38.0968C9.75488 37.433 9.46556 48.1889 6.51281 47.338Z" fill="white"/>
<path d="M168.939 39.313V50.0178H172.862V29.9102H169.093L164.685 40.6915H164.591V29.9102H160.677V50.0178H164.429L168.812 39.313H168.939Z" fill="white"/>
<path d="M169.952 25.1621H164.659V28.2425H169.28L169.952 25.1621Z" fill="white"/>
<path d="M43.4858 50.0183C45.5281 50.0183 52.7951 50.0183 54.7012 50.0183L54.7182 46.9634H53.6375L51.1358 29.9106H44.4729L41.801 46.9634H40.6777L40.6863 50.0183H43.4858ZM46.7534 34.2079H47.6554L49.502 46.9634H44.6857L46.7534 34.2079Z" fill="white"/>
<path d="M16.1447 32.1483C16.1447 42.4021 12.9111 48.7586 12.9111 48.7586L15.9234 50.5541C15.9234 50.5541 18.9358 43.202 18.9358 32.5823H21.7098V50.0095H25.6327V29.9019H16.1447V32.1483Z" fill="white"/>
<path d="M125.772 50.2477C127.874 50.3243 130.571 49.6946 130.571 49.6946L130.112 47.0822C126.308 47.797 122.666 46.878 122.955 39.9598C122.76 32.0291 125.278 32.3439 130.035 33.0842L130.171 29.8592C115.978 25.5109 114.965 49.7541 125.772 50.2477Z" fill="white"/>
<path d="M117.755 36.9819C117.644 28.064 111.552 30.1744 106.353 29.9021V50.0097H110.25V43.9936C113.671 44.0617 117.415 43.7468 117.755 36.9819ZM111.977 41.3812C111.662 41.4153 110.548 41.4068 110.241 41.3812V32.4804C110.641 32.4804 111.782 32.4974 112.037 32.5485C113.951 31.9188 114.147 41.7812 111.977 41.3812Z" fill="white"/>
<path d="M141.002 38.6323C142.491 37.7814 143.597 29.4933 143.699 29.9102H139.981C139.981 29.9102 139.283 34.1054 138.832 36.3518C138.602 38.326 137.3 37.6538 136.049 37.7729V29.9102H132.144V50.0179H136.049V40.4108C137.768 40.3683 138.73 40.13 139.062 42.6573C139.615 45.4058 140.423 50.0264 140.423 50.0264H144.516C144.261 50.2306 143.453 39.7386 141.002 38.6323Z" fill="white"/>
<path d="M88.049 29.9106H82.8583L80.297 43.6107H80.1523L77.7271 29.9106H72.596L70.8516 50.0183H73.8639L74.851 37.2883H75.0126L77.2676 50.0183H82.0414L84.4325 37.2883H84.5687L85.5473 50.0183H89.6062L88.049 29.9106Z" fill="white"/>
<path d="M93.8433 0.944668L75.6247 5.1483C74.076 10.6198 71.5402 19.5547 70 24.9752L74.6631 17.2061L90.2523 13.6151L93.8433 0.944668ZM106.156 0.731934L96.3025 3.00394L92.5584 14.4661L88.3718 16.6615L102.557 13.3939L98.3703 8.39038L106.156 0.731934Z" fill="white"/>
</svg>
