<svg width="82" height="43" viewBox="0 0 82 43" fill="none" xmlns="http://www.w3.org/2000/svg">
<g clip-path="url(#clip0_2766_742)">
<path d="M20.2708 16.2708C19.3533 13.3073 18.7512 8.71946 20.5575 2.82085C18.8659 3.21979 17.203 3.70422 15.5974 4.27414C14.8232 2.42192 12.8736 1.1966 10.8953 1.2251C11.354 2.42192 11.3827 2.64988 11.2107 3.98918C9.74842 2.5359 7.51206 1.2251 5.47639 2.5074C9.23234 3.90369 6.93863 8.463 9.63374 10.5717C8.14283 11.4835 7.65542 13.3643 6.07849 14.1051C4.4729 14.5896 2.92465 16.1568 1.17569 15.3305C-0.917312 14.7036 0.487583 17.1542 0.286883 18.0945C0.0575128 18.7499 0.0575128 19.4053 0.86031 19.6048C1.77779 20.5452 2.23653 21.1151 3.69877 21.1436C4.15751 22.7963 5.33304 23.1668 6.7666 23.5657C7.19667 23.7367 7.5694 23.9077 7.94213 24.0786C10.7232 19.5193 15.6834 17.6386 20.2708 16.2708Z" fill="white"/>
<path d="M20.2705 8.26362C24.8579 7.0668 29.7607 6.15494 34.7209 5.52803C34.8069 4.35971 35.1509 3.1059 35.8677 1.7666C33.2873 1.96607 31.395 2.08005 31.309 2.08005C29.3306 2.13705 29.56 1.82359 26.9509 1.93758C25.0586 2.02306 23.2237 2.25103 21.4174 2.64997C20.7579 4.67316 20.4139 6.55388 20.2705 8.26362Z" fill="white"/>
<path d="M34.6636 6.29688C29.7035 6.92378 24.8007 7.86414 20.242 9.06096H20.2133C20.0413 12.1385 20.5573 14.6176 21.1308 16.4128C22.249 19.8038 24.0839 21.9695 25.4888 22.9384C25.6322 22.283 25.8902 21.6846 26.2343 21.1716C27.7825 18.721 31.3091 17.2962 34.4916 19.1484C34.7783 19.3194 35.0364 19.4904 35.2657 19.6614C37.0434 16.5268 36.2979 13.9052 35.5525 11.1411C35.0937 9.57388 34.6636 7.97812 34.6636 6.29688Z" fill="white"/>
<path d="M60.2386 15.9288C60.4393 14.2191 60.7833 12.4808 61.2707 10.8281C61.8155 9.00436 62.5036 7.4086 63.3351 6.06931C55.2498 4.90098 45.2721 4.95797 35.4379 6.18329C35.4092 7.80754 35.8393 9.34631 36.2694 10.9136C36.5847 12.0249 36.9001 13.1362 37.0435 14.3046C42.1756 12.7088 53.7589 13.1932 60.2386 15.9288Z" fill="white"/>
<path d="M36.7567 1.681C35.9825 3.0203 35.6098 4.24561 35.4951 5.41394C45.5014 4.18862 55.6511 4.13163 63.8224 5.35695C64.9406 3.78968 66.2881 2.62136 67.8364 1.85198C67.349 1.681 66.8329 1.56702 66.3455 1.45304C66.3455 1.45304 66.0588 1.36755 66.0588 1.33905C60.5539 -0.570159 54.8196 -0.0572362 49.0567 0.370199C46.2469 0.883122 40.8567 1.36755 36.7567 1.681Z" fill="white"/>
<path d="M60.1528 16.7269C53.9024 13.9628 41.9752 13.4784 37.101 15.1026C37.187 16.6699 36.9003 18.3511 35.8682 20.1464C38.1905 22.2835 37.7605 24.9336 37.3591 27.2988C37.3304 27.4128 37.3304 27.5267 37.3017 27.6407C41.6311 26.9853 46.5052 26.6719 50.6339 28.3246C53.9311 29.7209 57.171 26.5864 60.2961 25.703C59.9808 23.3949 59.8087 20.1179 60.1528 16.7269Z" fill="white"/>
<path d="M81.6853 13.3073C81.5132 13.1078 81.2552 12.9939 80.9972 12.9369C78.216 12.3385 77.7286 12.5664 80.223 10.1443C81.3125 8.66251 80.6244 6.49684 79.1622 5.52798C79.1622 5.52798 77.1265 4.1032 74.5748 5.3855C74.0587 5.64196 73.5139 5.07205 73.1412 4.7301C71.8797 3.70426 70.4174 2.84939 68.8692 2.25098C65.658 3.50479 63.3643 6.46834 61.9881 11.0561C61.472 12.8229 61.1279 14.6751 60.9272 16.4703C60.9272 16.4988 60.9272 16.5558 60.9272 16.5843C60.6118 19.5479 60.6979 22.3974 60.9272 24.5631C63.0776 21.5996 66.6902 19.2914 70.6181 18.408C73.2559 17.8096 75.7216 17.9806 77.5279 18.807C77.8433 17.3537 78.0153 15.9004 77.9293 14.4186C78.5027 14.0197 78.6748 14.5896 79.4776 14.2192C80.2517 13.8487 81.4272 14.8176 80.3951 15.5015C81.7139 15.7009 82.4594 14.1622 81.6853 13.3073ZM77.2986 10.6572C77.0405 10.0588 76.0944 7.95012 75.779 7.43719C79.0762 4.81559 81.7426 9.83083 77.2986 10.6572Z" fill="white"/>
<path d="M75.6353 26.273C75.6353 26.273 75.0906 26.3585 75.5207 25.2187C76.1801 23.4234 76.8682 21.5427 77.3556 19.605C75.7214 18.7786 73.3703 18.6077 70.7899 19.1776C66.7759 20.0609 63.0773 22.5401 61.1277 25.6461C61.1277 25.6746 61.099 25.6746 61.0703 25.7031C61.2137 26.615 61.3857 27.3273 61.5577 27.8403C62.5039 29.8635 64.3102 30.8893 64.2528 33.169C64.1381 36.332 60.2675 37.7568 59.2354 40.5493L59.264 40.5778C59.4647 40.7203 59.7228 40.7203 59.9808 40.6633C60.2388 40.6063 60.5829 40.8628 60.8696 40.6918C61.443 40.4069 62.2458 40.9198 62.8193 40.8628C63.5934 40.2359 63.2493 38.1272 64.6542 38.4407C64.6542 38.8111 64.5682 39.2385 65.0556 39.324C66.3745 39.0106 65.8298 36.9019 66.4032 35.9046C67.206 34.1378 69.385 33.112 69.7291 31.0888C70.4745 31.0033 70.7039 32.1431 71.4207 32.4281C73.5423 33.2829 74.5745 35.6481 74.6605 37.7853C74.3165 39.6375 72.2808 40.4354 72.1661 42.4016C71.9081 43.5414 75.3773 42.7435 76.1801 42.9715C76.3808 41.9456 76.0941 40.7203 77.0689 40.0649C77.2696 40.3499 77.4703 40.6063 77.6997 40.9483C78.8465 38.6401 76.5528 35.7336 77.9577 33.3399C79.0472 31.0603 74.8612 29.6925 75.6353 26.273Z" fill="white"/>
<path d="M25.3455 23.7654C23.8546 22.825 21.7903 20.5739 20.5288 16.9834C16.1134 18.2942 11.3539 20.0894 8.6875 24.3638C12.042 25.7031 13.4756 25.7316 17.8623 25.5321C20.6721 26.0165 23.2239 27.6978 26.2057 27.8118C25.4602 26.3585 25.2309 24.9907 25.3455 23.7654Z" fill="white"/>
<path d="M35.753 32.3421C35.5523 31.8862 36.0971 30.4044 36.3838 29.1791C36.3551 29.1221 36.3264 29.0366 36.3264 28.9512C36.3838 28.3528 36.4698 27.7543 36.5845 27.1844C37.0432 24.4203 37.4733 21.7987 34.0614 19.804C31.2803 18.1798 28.2124 19.4336 26.8362 21.5708C25.288 24.0214 25.6033 28.3528 31.653 32.3991C31.825 32.5131 31.8824 32.7411 31.7677 32.9406C31.7103 33.026 31.653 33.0545 31.567 33.083C33.2873 35.6476 32.3698 38.2123 31.6817 40.9194C30.8789 41.4323 30.2194 41.8882 29.904 42.9141H34.2047C34.1761 42.2302 34.2908 40.5774 35.0936 40.4349C35.667 43.256 36.2404 39.0956 35.7817 38.2123C35.8964 36.2461 35.9537 34.3084 35.753 32.3421Z" fill="white"/>
<path d="M30.3059 34.0807C30.3345 34.0807 30.9366 33.4823 31.338 33.0549C31.3094 33.0549 31.2807 33.0264 31.2807 33.0264C29.245 31.6586 27.8115 30.2623 26.8653 28.8945C27.0087 30.1768 27.7255 31.1742 27.6968 32.428C27.6394 33.5678 27.152 34.6222 27.2954 35.7335C27.2954 35.933 27.5248 36.2179 27.4387 36.3034C27.066 36.7024 27.3814 37.1583 27.1807 37.7282C25.3744 39.4379 25.3744 39.4379 24.9443 40.5208C25.5751 41.2332 26.808 40.2643 27.7255 40.6348C28.3562 40.6633 28.3849 40.7202 28.3849 40.1503C28.4709 39.1815 29.1017 37.9562 29.4457 39.5234C31.4527 38.3551 29.5604 35.7335 30.3059 34.0807Z" fill="white"/>
</g>
<defs>
<clipPath id="clip0_2766_742">
<rect width="82" height="43" fill="white"/>
</clipPath>
</defs>
</svg>
