<svg width="33" height="26" viewBox="0 0 33 26" fill="none" xmlns="http://www.w3.org/2000/svg">
<path d="M17.2065 20.6419C16.0348 21.5567 15.1013 22.7178 13.8905 23.6482C13.774 23.7456 13.6318 23.8069 13.4811 23.8247C13.3305 23.8425 13.1779 23.8159 13.042 23.7484C12.9061 23.6808 12.7929 23.5751 12.716 23.4441C12.6392 23.3132 12.6022 23.1627 12.6094 23.011C12.6875 21.5176 12.8672 20.0282 12.9062 18.5309C12.9414 17.3033 13.5429 16.498 14.4295 15.7357C18.1673 12.5026 21.8739 9.23049 25.5845 5.96227C25.8227 5.75507 26.0141 5.54006 25.8579 5.32113C25.7016 5.10221 25.3111 5.23903 24.9712 5.43841C19.8781 8.43298 14.781 11.4276 9.70345 14.4769C9.31247 14.7596 8.85423 14.9348 8.37448 14.9849C7.89472 15.0349 7.41023 14.9582 6.96938 14.7622C5.40706 14.1289 3.77053 13.6872 2.16524 13.1633C1.97626 13.1202 1.79084 13.0627 1.61062 12.9913C1.04428 12.7098 0.212339 12.487 0.329513 11.7364C0.403723 11.3142 1.06771 10.8646 1.56375 10.673C4.85244 9.41814 8.14113 8.21797 11.4454 7.00216C17.4799 4.77773 23.5105 2.54157 29.5488 0.336695C30.0797 0.110381 30.6567 0.0138928 31.2323 0.0552205C32.279 0.207686 32.7477 1.20848 32.447 2.50639C31.908 4.91847 31.3338 7.32272 30.7948 9.72698C29.7923 14.0976 28.7911 18.4683 27.7912 22.839C27.7053 23.2299 27.6194 23.5974 27.5217 23.9766C27.0218 25.9547 26.018 26.3222 24.3073 25.0869C22.3544 23.6873 20.4249 22.2448 18.4876 20.8218L18.1634 20.6028C18.0201 20.5076 17.8505 20.4601 17.6786 20.4672C17.5068 20.4742 17.3416 20.5353 17.2065 20.6419Z" fill="white"/>
</svg>
