<svg width="56" height="58" viewBox="0 0 56 58" fill="none" xmlns="http://www.w3.org/2000/svg">
<g clip-path="url(#clip0_2764_61)">
<path d="M43.0216 45.0226H42.9557L42.8898 44.9893C42.5934 44.7231 42.1651 44.3904 41.704 44.0243C40.0898 42.7931 38.0804 41.2624 38.4098 39.6319C38.6734 38.5338 38.9698 37.469 39.2663 36.3709C40.4522 32.0117 41.704 27.5195 41.6381 22.9274V22.6944C41.671 20.4317 41.3745 18.1356 41.111 15.9061L40.9793 14.7415C40.5181 13.5103 41.4075 12.9779 42.1322 12.5785C42.3628 12.4454 42.5934 12.3123 42.7581 12.1792L42.824 12.146C44.471 11.4804 46.1181 8.31922 47.5675 5.55732C49.2475 2.36283 50.6969 -0.365802 52.1792 0.066785L52.2781 0.133337C52.6404 0.499373 52.6075 1.36455 52.5745 2.19645C52.5745 2.52921 52.5416 2.96179 52.5745 3.16145C53.1016 2.99507 53.5298 3.06162 53.8922 3.36111C54.9134 4.25956 54.4192 6.88836 54.3534 7.32094C54.3863 7.5206 54.3204 7.75353 54.2545 7.95319C54.1557 8.28595 54.1557 8.3525 54.1887 8.38578C54.7487 8.58543 55.1769 8.95147 55.4075 9.48388C56.0663 10.8815 55.3416 13.1442 54.8804 14.3422C54.8804 14.3754 54.8804 14.3754 54.8475 14.4087C54.8804 14.4087 54.8804 14.4087 54.8804 14.442L54.9463 14.4753C56.6593 15.8396 55.8687 17.9027 55.2098 19.7329C54.9463 20.4317 54.6828 21.1305 54.6169 21.6962C55.9345 22.4948 55.4075 24.7243 54.8804 25.8889C54.7487 26.5545 54.3204 27.0536 53.8922 27.586C53.5628 27.9853 53.2663 28.3514 53.1345 28.7507C53.5957 29.1833 53.8263 29.7157 53.8592 30.2814C53.8922 31.8121 52.344 33.5091 51.2898 34.4741C51.6851 34.7736 51.8828 35.1396 51.9157 35.5722C52.0475 36.87 50.631 38.434 49.7416 39.166C49.6098 39.3657 49.3463 39.4988 49.0828 39.6652C48.9181 39.765 48.5887 39.9647 48.5557 40.0312C49.1816 40.5304 49.3463 41.1626 49.0169 41.8614C48.2922 43.5252 44.8334 45.1224 43.3181 45.1224C43.2193 45.0226 43.1204 45.0226 43.0216 45.0226Z" fill="white"/>
<path d="M21.3128 32.3109C21.3128 32.2776 21.3128 32.2444 21.3128 32.2111C21.3128 32.2444 21.3458 32.2776 21.3458 32.3109H21.3128ZM20.9834 29.915C21.0163 29.9483 21.0493 29.9816 21.0822 30.0149C21.0493 30.0481 21.0493 30.0481 21.0163 30.0814C21.0163 30.0481 21.0163 29.9816 20.9834 29.915Z" fill="white"/>
<path d="M17.3929 42.5265L17.7552 42.7927V42.3601C17.7882 40.7296 17.9199 39.0325 18.5458 37.4685C18.9082 36.5701 19.567 35.8047 20.3905 35.3056C20.3905 35.3056 20.3905 35.3056 20.4235 35.3056C20.9505 34.9728 21.774 34.4737 23.1576 33.9745C27.0117 33.2092 29.7787 34.0078 30.8658 36.204C32.3482 39.1656 30.6023 44.1237 26.9458 47.4846C26.6164 47.8506 26.3199 48.1501 26.0564 48.4163C24.8705 49.6475 24.3105 50.2465 24.3764 50.912C24.4752 51.6108 25.2329 52.1099 26.9788 53.208L27.5387 53.5741C29.7787 55.3044 34.3576 58.0331 38.1129 58.0331C38.9035 58.0331 39.694 57.9 40.3858 57.6005C42.1646 56.8684 43.2187 55.2046 43.5811 52.6423C44.767 47.8173 42.7905 46.0204 40.5176 43.924C39.5293 43.0256 38.5082 42.0939 37.6187 40.7961C37.3223 39.8977 37.6187 38.9992 37.9482 38.0675C38.3105 37.0027 38.6729 35.9045 38.2117 34.7066C36.6964 27.9849 29.9764 25.8219 24.4093 25.9883C18.5458 25.9883 13.6376 28.5506 12.3529 32.5437C11.2988 35.9378 13.1105 39.5982 17.3929 42.5265Z" fill="white"/>
<path d="M3.72247 36.0047C6.32482 34.0747 9.42129 30.9467 9.61894 27.0867C9.55306 26.7872 9.61894 26.5543 9.7507 26.3879C9.98129 26.155 10.3436 26.155 10.6731 26.1883C10.8378 26.1883 11.0354 26.2215 11.2001 26.1883C13.4401 25.8555 15.3507 24.4912 17.1625 23.1934C19.3036 21.6627 21.4778 20.0988 24.2778 19.9989C27.3413 19.6995 30.2072 19.6995 33.0401 20.0322C33.3366 20.0655 33.6331 20.0655 33.8636 20.0988C34.5225 20.132 35.0825 20.0988 35.346 20.5314C35.9389 21.5296 35.2801 25.2233 34.3578 26.9536C33.9625 27.5193 33.3366 27.0867 32.9413 26.8205C32.7766 26.6874 32.5789 26.5876 32.4472 26.521C29.8119 25.5227 26.9131 25.4562 24.0801 25.3564L23.4213 25.3231C17.5907 25.5893 12.8801 28.4843 11.6613 32.5107C10.6072 36.038 12.386 39.8647 16.5695 43.0259C19.5672 45.3219 19.7648 46.0873 19.5672 46.5532C19.4354 46.8859 19.0401 47.019 18.3154 47.019C17.7554 47.019 17.0307 46.9192 16.0754 46.7195C11.5625 45.9875 7.44482 43.4252 4.546 39.4986C4.48011 39.3988 4.41423 39.299 4.31541 39.1992C3.78835 38.5336 3.06364 37.5686 3.19541 36.77C3.26129 36.4705 3.426 36.2043 3.72247 36.0047Z" fill="white"/>
<path d="M12.4188 54.4732C13.6376 53.4084 15.3505 53.1422 16.6682 53.1089C16.6682 53.1089 20.0941 52.8427 20.6541 51.1124C20.7529 50.7463 20.9505 50.3803 21.1152 50.0143C21.4776 49.3155 21.807 48.6832 21.5105 48.1175L21.3458 47.8513C19.4352 44.5237 16.7999 39.9316 20.127 36.4377C22.1693 34.6408 25.167 33.942 27.8023 34.7073C29.3505 35.2065 30.3058 36.1382 30.6352 37.4692C31.3599 40.2977 28.9552 44.191 27.1764 46.0877C26.6823 46.7532 26.0893 47.3855 25.5293 47.9844C24.5082 49.0825 23.5199 50.0808 23.0258 51.4451C22.927 51.6781 22.7952 51.911 22.6305 52.1772C22.2682 52.7429 22.0376 53.2088 22.2023 53.4417C22.2682 53.5082 22.4329 53.6413 22.6305 53.8077C24.2776 55.172 25.1999 56.0705 25.0352 56.6362C25.0023 56.8026 24.8376 57.0022 24.4093 57.0355H24.3105L24.2446 56.9689C22.1693 55.5048 19.7317 55.3051 17.3599 56.3367L17.2941 56.37C16.3388 56.5031 15.5811 56.9357 14.7576 57.8008L14.6917 57.8674H14.6258C14.5599 57.9007 14.4611 57.9007 14.3952 57.9007C14.1317 57.9007 13.967 57.7676 13.9011 57.6677C13.5717 57.1353 14.1976 55.9041 14.4282 55.6046C14.5599 55.4382 14.6917 55.3384 14.8235 55.2386C13.9011 55.3717 12.9788 55.8376 12.1552 56.5363L12.0893 56.6029H11.9905H11.9576C11.5293 56.6029 11.3646 56.4032 11.3317 56.2701C11.1341 55.5713 12.3858 54.4732 12.4188 54.4732Z" fill="white"/>
<path d="M5.04023 21.0974C5.04023 20.7979 4.90846 20.7314 4.57905 20.565C4.44729 20.4985 4.28258 20.4319 4.11788 20.2988C4.01905 20.199 3.88729 20.0992 3.75552 19.966C3.19552 19.4669 2.43788 18.7681 2.04258 18.9012C1.84493 18.9678 1.68023 19.3338 1.58141 19.9328C1.35082 20.6316 1.64729 22.5283 1.4167 23.3269C1.28493 23.7262 0.922582 23.8261 0.691993 23.7262C-0.0327124 23.5266 0.000228759 20.8978 0.000228759 20.3654C0.329641 17.3705 2.04258 15.2076 4.54611 14.6419C6.62141 14.176 8.72964 14.9081 9.68493 16.4388C10.3108 17.4038 10.9696 19.5335 8.49905 22.7612C8.23552 23.1605 8.07082 23.4267 8.00493 23.5599C8.20258 23.5266 8.49905 23.5266 8.6967 23.7595C8.99317 24.059 9.05905 24.5914 8.92729 25.4899C9.28964 30.7475 4.90846 34.308 2.99788 35.639C2.86611 35.7056 2.76729 35.7389 2.63552 35.7389C2.47082 35.7389 2.33905 35.6723 2.20729 35.4394L2.17435 35.3728C2.14141 35.2397 2.07552 35.0733 2.04258 34.9402C1.87788 34.4744 1.71317 34.0085 1.68023 33.4428C1.71317 32.9769 1.68023 32.744 1.35082 32.6109H1.28493L1.25199 32.5444C-0.757418 29.9488 1.02141 27.7859 2.70141 25.6895C3.88729 24.2586 5.10611 22.7612 5.04023 21.0974Z" fill="white"/>
<path d="M35.1814 19.3331L35.1155 19.3664H35.0496C34.5225 19.3331 33.9955 19.2998 33.4684 19.2666C30.5696 19.0669 27.539 18.834 24.6402 19.2C21.4778 19.2998 18.7108 21.0302 16.1743 22.8936C14.7908 23.9917 12.5837 25.5224 10.9696 25.5224C10.4425 25.5224 9.98137 25.356 9.65195 24.9567L9.58607 24.8236C9.32254 23.2264 10.0143 22.8936 11.2002 22.5276C12.5178 22.095 13.2755 21.0635 14.0661 19.9986C14.3955 19.5328 14.7578 19.0669 15.1531 18.6343C18.579 15.2069 22.8614 13.177 26.9131 13.0439C26.9461 13.0439 26.979 13.0439 26.979 13.0439C28.692 13.0439 30.372 13.5098 31.9531 13.9757C32.7437 14.2086 33.5343 14.4083 34.3249 14.5746C35.7414 14.8408 35.7743 18.9671 35.1814 19.3331Z" fill="white"/>
<path d="M39.0689 33.8422L38.8053 33.4429C38.4759 32.9437 38.1795 32.4113 37.883 31.9122C37.2242 30.7143 36.5324 29.483 35.4783 28.6511C34.49 28.0189 35.2477 27.1537 35.4453 26.3551C37.4547 18.4021 35.9065 15.5071 36.203 15.0413C36.3018 14.8749 36.4995 14.7751 36.73 14.7418C37.5206 14.7418 38.2453 14.4756 39.003 14.1761L39.2995 14.0763C39.6289 13.9432 39.9253 13.9764 39.9583 14.1428C42.4618 24.4584 39.0689 33.8422 39.0689 33.8422Z" fill="white"/>
</g>
<defs>
<clipPath id="clip0_2764_61">
<rect width="56" height="58" fill="white"/>
</clipPath>
</defs>
</svg>
