<svg width="37" height="21" viewBox="0 0 37 21" fill="none" xmlns="http://www.w3.org/2000/svg">
<path d="M13.0864 2.3686C12.9951 2.28175 12.9277 2.17251 12.8906 2.05152C12.8536 1.93053 12.8483 1.80193 12.8752 1.67825C12.9021 1.55456 12.9602 1.44002 13.044 1.34578C13.1278 1.25154 13.2343 1.18082 13.3532 1.14051C15.4342 0.521622 17.6373 0.449352 19.7537 0.930547C21.0212 1.22767 21.3234 1.63571 21.3627 3.01434C21.3627 4.53162 21.3234 6.0489 21.3116 7.56619C21.2878 8.09484 21.3035 8.62456 21.3587 9.15082C21.5196 10.2561 22.3437 10.6008 23.1482 9.88767C23.6469 9.4609 24.0782 8.95996 24.4275 8.40208C25.3843 6.91767 26.2493 5.375 27.0175 3.78288C27.6886 2.28144 28.5362 1.48517 30.2708 1.65552C31.7581 1.80606 33.2767 1.63175 34.7758 1.68721C36.2121 1.73871 36.632 2.35275 35.8942 3.56896C34.717 5.54974 33.3278 7.37603 32.021 9.26174C31.6286 9.80051 31.1969 10.2878 30.8437 10.8464C30.153 11.9398 30.1726 12.3042 31.0909 13.2748C32.2682 14.5148 33.5083 15.6795 34.6816 16.9155C35.1775 17.4368 35.6073 18.0183 35.961 18.6467C36.4633 19.5539 36.2239 20.0808 35.2467 20.4215C34.8764 20.5377 34.4923 20.603 34.1048 20.6156C32.6528 20.6473 31.1969 20.683 29.741 20.6592C28.03 20.6315 26.8606 19.5658 25.75 18.413C25.1489 17.7232 24.5067 17.0709 23.8271 16.4599C22.9834 15.7746 22.4497 15.8538 21.9042 16.8085C21.5882 17.4904 21.398 18.2248 21.343 18.9755C21.2773 19.4035 21.0695 19.7961 20.7536 20.0891C20.4377 20.3821 20.0325 20.558 19.6046 20.5879C17.201 20.8159 14.7829 20.3459 12.6351 19.233C9.55452 17.6484 7.39617 15.0971 5.61062 12.2448C3.90357 9.52717 2.47121 6.6471 0.901497 3.83042C0.730859 3.55003 0.598837 3.24749 0.50907 2.93114C0.336402 2.18637 0.599328 1.74267 1.33317 1.70702C3.02845 1.64363 4.72766 1.65948 6.43472 1.67136C7.25097 1.67136 7.70619 2.1824 8.05937 2.89153C8.84422 4.47616 9.65655 6.06079 10.5199 7.60976C10.9229 8.36328 11.4172 9.06326 11.9915 9.69355C12.3054 10.0263 13.004 10.3472 13.3179 10.2363C14.3539 9.85994 14.3461 8.38227 14.3578 8.11685C14.3578 7.58996 14.3892 7.06307 14.3892 6.53222C14.4049 3.99681 14.4049 3.67196 13.0864 2.3686Z" fill="white"/>
</svg>
