<svg width="194" height="103" viewBox="0 0 194 103" fill="none" xmlns="http://www.w3.org/2000/svg">
<path fill-rule="evenodd" clip-rule="evenodd" d="M85.0649 95.9017V95.8265H193.958V102.36H85.0649V102.36H10.3777C4.77288 102.36 0.128906 97.6776 0.128906 92.0269V41.0085C0.128906 38.9096 0.128906 37.2951 23.0285 25.8321V18.5668C23.0285 18.4054 22.8684 18.4054 22.8684 18.4054H18.3845C14.7014 18.4054 11.6588 15.3378 11.6588 11.6244V6.78093C11.6588 3.06756 14.7014 0 18.5447 0H54.8958C58.579 0 61.6216 3.06756 61.6216 6.78093V11.463C61.6216 15.1764 58.579 18.2439 54.8958 18.2439H50.412C50.2518 18.2439 50.2518 18.4054 50.2518 18.4054V25.8321C73.1515 37.2951 73.1515 38.9096 73.1515 41.0085V84.6001H66.746V42.3001C63.8635 40.2012 54.0951 35.0348 45.6079 30.6756C44.4869 30.1913 43.8464 29.0611 43.8464 27.7695V18.5668C43.8464 14.8535 46.889 11.9473 50.412 11.9473H54.8958C55.056 11.9473 55.2161 11.7859 55.2161 11.6244V6.78093C55.2161 6.61948 55.056 6.45802 54.8958 6.45802H18.5447C18.3845 6.45802 18.2244 6.61948 18.2244 6.78093V11.463C18.2244 11.6244 18.3845 11.7859 18.5447 11.7859H23.0285C26.7117 11.7859 29.5941 14.8535 29.5941 18.4054V27.6081C29.5941 28.8997 28.9536 29.8684 27.8326 30.5142C19.1852 35.0348 9.41686 40.3627 6.53439 42.3001V92.0269C6.53439 94.1257 8.2959 95.9017 10.3777 95.9017H85.0649ZM22.7083 81.8555C22.7083 80.241 23.9893 78.7879 25.7509 78.7879C27.3522 78.7879 28.7935 80.241 28.7935 81.8555C28.7935 83.47 27.3522 84.923 25.7509 84.923C24.1495 84.923 22.7083 83.47 22.7083 81.8555ZM34.5584 81.8555C34.5584 80.241 35.8395 78.7879 37.601 78.7879C39.3625 78.7879 40.6436 80.241 40.6436 81.8555C40.6436 83.47 39.3625 84.923 37.601 84.923C35.9996 84.923 34.5584 83.47 34.5584 81.8555ZM46.4086 81.8555C46.4086 80.241 47.6897 78.7879 49.4512 78.7879C51.2127 78.7879 52.4938 80.241 52.4938 81.8555C52.4938 83.47 51.0525 84.923 49.4512 84.923C47.8498 84.923 46.4086 83.47 46.4086 81.8555Z" fill="#231F20"/>
</svg>
