<svg width="139" height="30" viewBox="0 0 139 30" fill="none" xmlns="http://www.w3.org/2000/svg">
<path fill-rule="evenodd" clip-rule="evenodd" d="M6.47978 23.9905C6.47978 23.5173 6.84743 23.0915 7.35294 23.0915C7.8125 23.0915 8.2261 23.5173 8.2261 23.9905C8.2261 24.4637 7.8125 24.8896 7.35294 24.8896C6.89338 24.8896 6.47978 24.4637 6.47978 23.9905ZM9.88051 23.9905C9.88051 23.5173 10.2482 23.0915 10.7537 23.0915C11.2592 23.0915 11.6268 23.5173 11.6268 23.9905C11.6268 24.4637 11.2592 24.8896 10.7537 24.8896C10.2941 24.8896 9.88051 24.4637 9.88051 23.9905ZM13.2812 23.9905C13.2812 23.5173 13.6489 23.0915 14.1544 23.0915C14.6599 23.0915 15.0276 23.5173 15.0276 23.9905C15.0276 24.4637 14.614 24.8896 14.1544 24.8896C13.6949 24.8896 13.2812 24.4637 13.2812 23.9905Z" fill="#C49161"/>
<path d="M139 30H2.94118C1.33272 30 0 28.6278 0 26.9716V12.0189C0 11.4038 0 10.9306 6.57169 7.57098V5.44164C6.57169 5.39432 6.52573 5.39432 6.52573 5.39432H5.23897C4.18198 5.39432 3.30882 4.49527 3.30882 3.40694V1.98738C3.30882 0.899054 4.18199 0 5.28493 0H15.7169C16.7739 0 17.6471 0.899054 17.6471 1.98738V3.35962C17.6471 4.44795 16.7739 5.347 15.7169 5.347H14.4301C14.3842 5.347 14.3842 5.39432 14.3842 5.39432V7.57098C20.9559 10.9306 20.9559 11.4038 20.9559 12.0189V24.795H19.1176V12.3975C18.2904 11.7823 15.4871 10.2681 13.0515 8.99054C12.7298 8.84858 12.546 8.51735 12.546 8.1388V5.44164C12.546 4.35331 13.4191 3.50158 14.4301 3.50158H15.7169C15.7629 3.50158 15.8088 3.45426 15.8088 3.40694V1.98738C15.8088 1.94006 15.7629 1.89274 15.7169 1.89274H5.28493C5.23897 1.89274 5.19301 1.94006 5.19301 1.98738V3.35962C5.19301 3.40694 5.23897 3.45426 5.28493 3.45426H6.57169C7.62868 3.45426 8.45588 4.35331 8.45588 5.39432V8.09148C8.45588 8.47003 8.27206 8.75394 7.95037 8.94322C5.46875 10.2681 2.66544 11.8297 1.83824 12.3975V26.9716C1.83824 27.5868 2.34375 28.1073 2.94118 28.1073H139V30Z" fill="#C49161"/>
</svg>
