<svg width="128" height="68" viewBox="0 0 128 68" fill="none" xmlns="http://www.w3.org/2000/svg">
<path fill-rule="evenodd" clip-rule="evenodd" d="M7.3922 67.1192H57.7946H57.8996L127.77 67.1192V62.835H56.3662V62.8845H7.3922C6.02713 62.8845 4.87208 61.72 4.87208 60.3438V27.737C6.76217 26.4666 13.1675 22.973 18.8377 20.0087C19.5728 19.5853 19.9928 18.9501 19.9928 18.1031V12.0687C19.9928 9.73969 18.1027 7.72823 15.6876 7.72823H12.7475C12.6424 7.72823 12.5374 7.62237 12.5374 7.5165V4.44638C12.5374 4.34052 12.6424 4.23465 12.7475 4.23465H36.5836C36.6886 4.23465 36.7936 4.34052 36.7936 4.44638V7.62237C36.7936 7.72823 36.6886 7.8341 36.5836 7.8341H33.6434C31.3333 7.8341 29.3382 9.73969 29.3382 12.1746V18.209C29.3382 19.0559 29.7583 19.797 30.4933 20.1146C36.0586 22.973 42.4639 26.3607 44.354 27.737V55.4739H48.5542V26.89C48.5542 25.5138 48.5542 24.4551 33.5384 16.9386V12.0687C33.5384 12.0687 33.5384 11.9629 33.6434 11.9629H36.5836C38.9987 11.9629 40.9938 9.95143 40.9938 7.5165V4.44638C40.9938 2.01146 38.9987 0 36.5836 0H12.7475C10.2273 0 8.23223 2.01146 8.23223 4.44638V7.62237C8.23223 10.0573 10.2273 12.0687 12.6424 12.0687H15.5826C15.5826 12.0687 15.6876 12.0688 15.6876 12.1746V16.9386C0.671875 24.4551 0.671875 25.5138 0.671875 26.89V60.3438C0.671875 64.0491 3.71702 67.1192 7.3922 67.1192ZM15.4776 53.6742C15.4776 52.6155 16.3176 51.6627 17.4727 51.6627C18.5227 51.6627 19.4678 52.6155 19.4678 53.6742C19.4678 54.7328 18.5227 55.6856 17.4727 55.6856C16.4226 55.6856 15.4776 54.7328 15.4776 53.6742ZM23.2479 53.6742C23.2479 52.6155 24.088 51.6627 25.243 51.6627C26.3981 51.6627 27.2381 52.6155 27.2381 53.6742C27.2381 54.7328 26.3981 55.6856 25.243 55.6856C24.193 55.6856 23.2479 54.7328 23.2479 53.6742ZM31.0183 53.6742C31.0183 52.6155 31.8584 51.6627 33.0134 51.6627C34.1685 51.6627 35.0085 52.6155 35.0085 53.6742C35.0085 54.7328 34.0635 55.6856 33.0134 55.6856C31.9634 55.6856 31.0183 54.7328 31.0183 53.6742Z" fill="#C49161"/>
</svg>
