<svg width="96" height="95" viewBox="0 0 96 95" fill="none" xmlns="http://www.w3.org/2000/svg">
<g clip-path="url(#clip0_632_616)">
<path d="M40.1516 79.9921C62.1325 79.9921 79.9516 62.173 79.9516 40.1921C79.9516 18.2112 62.1325 0.39209 40.1516 0.39209C18.1706 0.39209 0.351562 18.2112 0.351562 40.1921C0.351562 62.173 18.1706 79.9921 40.1516 79.9921Z" fill="#D7A461"/>
<path d="M40.712 32.1123C39.472 31.2323 37.742 31.5223 36.852 32.7623C35.962 34.0023 36.262 35.7323 37.502 36.6223C38.742 37.5023 40.472 37.2123 41.362 35.9723C42.252 34.7323 41.952 33.0023 40.712 32.1123ZM39.862 34.9023C39.562 35.3123 38.992 35.4123 38.572 35.1223C38.162 34.8223 38.062 34.2523 38.352 33.8323C38.652 33.4223 39.222 33.3223 39.642 33.6123C40.052 33.9123 40.152 34.4823 39.862 34.9023ZM63.872 24.3023C61.962 19.5923 58.762 15.5523 54.622 12.6023C50.482 9.65229 45.612 7.95229 40.542 7.68229C40.032 7.65229 39.602 8.04229 39.572 8.55229C39.542 9.06228 39.932 9.49229 40.442 9.52229C45.162 9.77229 49.692 11.3523 53.552 14.1023C57.412 16.8523 60.382 20.6123 62.162 24.9923C62.232 25.1623 62.342 25.3023 62.482 25.3923C62.732 25.5723 63.062 25.6223 63.362 25.4923C63.832 25.3023 64.062 24.7623 63.872 24.2923V24.3023ZM39.722 24.2623C39.212 24.2323 38.782 24.6223 38.742 25.1323C38.712 25.6423 39.102 26.0723 39.612 26.1123C42.732 26.2923 45.572 28.3223 46.762 31.2123C46.832 31.3823 46.942 31.5123 47.082 31.6123C47.332 31.7923 47.662 31.8423 47.972 31.7123C48.442 31.5123 48.662 30.9823 48.472 30.5123C47.012 26.9823 43.532 24.5023 39.722 24.2823V24.2623ZM49.812 19.3623C46.992 17.3523 43.682 16.1923 40.222 15.9923C39.712 15.9623 39.282 16.3523 39.252 16.8623C39.222 17.3723 39.612 17.8123 40.122 17.8323C43.232 18.0123 46.212 19.0623 48.742 20.8623C51.272 22.6723 53.242 25.1423 54.422 28.0223C54.492 28.1923 54.602 28.3223 54.742 28.4223C54.992 28.6023 55.322 28.6523 55.632 28.5223C56.102 28.3323 56.332 27.7923 56.132 27.3223C54.812 24.1223 52.632 21.3723 49.812 19.3623Z" fill="white"/>
<path d="M16.5416 50.4719C17.9816 60.0919 27.7016 71.9119 41.9116 81.3119C62.4516 94.9019 84.4316 98.3819 91.9716 89.2419L93.7916 87.0419C94.9216 85.6719 95.4116 84.0019 95.1616 82.3519C94.9116 80.7019 93.9616 79.2519 92.4716 78.2719L82.9716 71.9819C79.8116 69.8919 75.2716 70.5619 72.8616 73.4919L71.0516 75.6919C68.1116 79.2519 60.5116 77.5019 50.7216 71.0219C41.5616 64.9619 39.1816 60.6619 38.8016 58.1219C38.6016 56.7919 38.9116 55.6219 39.7116 54.6519L41.5216 52.4519C42.5916 51.1519 43.0716 49.4419 42.8216 47.7719C42.5716 46.1019 41.6216 44.6119 40.2116 43.6819L30.7116 37.3919C29.1916 36.3819 27.2916 35.9819 25.3716 36.2719C23.4516 36.5619 21.7516 37.4919 20.5916 38.9019L18.7816 41.1019C16.7716 43.5419 15.9916 46.7819 16.5416 50.4619V50.4719ZM22.5116 39.8919C23.2916 38.9519 24.4016 38.3319 25.6416 38.1519C26.8816 37.9719 28.1316 38.2319 29.1416 38.9019L38.6416 45.1919C39.6616 45.8619 40.3416 46.9419 40.5216 48.1419C40.7016 49.3419 40.3616 50.5619 39.5816 51.5019L37.7716 53.7019C36.6516 55.0619 36.1916 56.7219 36.4616 58.4919C37.0816 62.6419 41.3516 67.3719 49.1516 72.5319C65.0516 83.0519 71.0916 78.9419 72.9616 76.6819L74.7716 74.4819C76.3516 72.5619 79.3316 72.1119 81.4116 73.4919L90.9116 79.7819C91.9216 80.4519 92.6116 81.5319 92.7916 82.7319C92.9716 83.9319 92.6316 85.1619 91.8616 86.0919L90.0516 88.2919C88.3116 90.4019 85.5616 91.6919 82.1016 92.2119C72.5216 93.6419 57.5116 89.1319 43.4616 79.8419C29.8716 70.8519 20.2216 59.1919 18.8616 50.1419C18.3716 46.8719 18.9916 44.1719 20.6916 42.1019L22.5016 39.9019L22.5116 39.8919Z" fill="#D7A461"/>
<path d="M18.8711 50.1221C18.3811 46.8521 19.0011 44.1521 20.7011 42.0821L22.5111 39.8821C23.2911 38.9421 24.4011 38.3221 25.6411 38.1421C26.8811 37.9521 28.1311 38.2221 29.1411 38.8921L38.6411 45.1821C39.6611 45.8521 40.3411 46.9321 40.5211 48.1321C40.7011 49.3321 40.3611 50.5521 39.5811 51.4921L37.7711 53.6921C36.6511 55.0521 36.1911 56.7121 36.4611 58.4821C37.0811 62.6321 41.3511 67.3621 49.1511 72.5221C51.7311 74.2321 54.0311 75.5221 56.1111 76.5321C56.8711 76.1121 57.6611 75.7221 58.4711 75.3721C56.0911 74.3121 53.5011 72.8821 50.7011 71.0321C41.5411 64.9721 39.1611 60.6721 38.7811 58.1321C38.5811 56.8021 38.8911 55.6321 39.6911 54.6621L41.5011 52.4621C42.5711 51.1621 43.0511 49.4521 42.8011 47.7821C42.5511 46.1121 41.6011 44.6221 40.1911 43.6921L30.6911 37.4021C29.1711 36.3921 27.2711 35.9921 25.3511 36.2821C23.4311 36.5721 21.7311 37.5021 20.5711 38.9121L18.7611 41.1121C16.7511 43.5521 15.9711 46.7921 16.5211 50.4721C17.8911 59.6621 26.8511 70.8421 40.0411 80.0221C41.1611 79.8721 42.2811 79.8021 43.4111 79.7921C29.8411 70.8021 20.2111 59.1621 18.8511 50.1221H18.8711Z" fill="white"/>
</g>
<defs>
<clipPath id="clip0_632_616">
<rect width="94.87" height="93.94" fill="white" transform="translate(0.351562 0.39209)"/>
</clipPath>
</defs>
</svg>
