<svg width="109" height="109" viewBox="0 0 109 109" fill="none" xmlns="http://www.w3.org/2000/svg">
<g clip-path="url(#clip0_632_597)">
<path d="M88.4916 53.0622C88.4916 75.0422 70.6716 92.8622 48.6916 92.8622C40.0716 92.8622 32.1016 90.1222 25.5816 85.4622C24.7916 84.9022 24.0216 84.3122 23.2716 83.6722C15.1816 76.9622 9.8016 67.1022 9.0016 55.9622C8.9316 55.0122 8.8916 54.0422 8.8916 53.0722C8.8916 41.4922 13.8316 31.0722 21.7116 23.8022C22.4216 23.1522 23.1616 22.5122 23.9216 21.9122C30.7116 16.4922 39.3216 13.2622 48.6916 13.2622C50.1516 13.2622 51.6016 13.3422 53.0216 13.5022C54.0016 13.6022 54.9716 13.7422 55.9216 13.9222C74.4516 17.3222 88.4916 33.5522 88.4916 53.0622Z" fill="#D7A461"/>
<path d="M54.4716 108.652C24.6316 108.652 0.351562 84.3621 0.351562 54.5221C0.351562 24.6821 24.6316 0.39209 54.4716 0.39209C84.3116 0.39209 108.612 24.6721 108.612 54.5221C108.612 84.3721 84.3216 108.652 54.4716 108.652ZM54.4716 3.30209C26.2316 3.29209 3.25156 26.2721 3.25156 54.5221C3.25156 82.7721 26.2316 105.752 54.4816 105.752C82.7316 105.752 105.722 82.7721 105.722 54.5221C105.722 26.2721 82.7316 3.29209 54.4716 3.29209V3.30209Z" fill="#D7A461"/>
<path d="M81.8315 40.1921L80.3815 37.6821L56.8115 51.2921C56.1515 50.8221 55.3515 50.5321 54.4815 50.5321C53.4415 50.5321 52.5015 50.9421 51.7915 51.5921L35.5115 42.1921L34.0615 44.7021L50.5215 54.2121C50.5215 54.3221 50.4915 54.4221 50.4915 54.5321C50.4915 56.7421 52.2815 58.5321 54.4815 58.5321C56.6815 58.5321 58.4815 56.7421 58.4815 54.5321C58.4815 54.2521 58.4515 53.9921 58.4015 53.7321L81.8315 40.2021V40.1921Z" fill="#D7A461"/>
<path d="M55.9313 6.51221H53.0312V14.2622H55.9313V6.51221Z" fill="#D7A461"/>
<path d="M21.5561 19.5482L19.5059 21.5991L24.9869 27.0782L27.0371 25.0273L21.5561 19.5482Z" fill="#D7A461"/>
<path d="M14.2217 53.0723H6.47168V55.9723H14.2217V53.0723Z" fill="#D7A461"/>
<path d="M24.9831 81.9688L19.5088 87.4546L21.5615 89.5031L27.0359 84.0172L24.9831 81.9688Z" fill="#D7A461"/>
<path d="M55.9313 94.7822H53.0312V102.532H55.9313V94.7822Z" fill="#D7A461"/>
<path d="M83.9725 81.9635L81.9219 84.0142L87.402 89.4942L89.4526 87.4436L83.9725 81.9635Z" fill="#D7A461"/>
<path d="M102.491 53.0723H94.7412V55.9723H102.491V53.0723Z" fill="#D7A461"/>
<path d="M87.4011 19.5381L81.9248 25.022L83.9768 27.0712L89.4531 21.5872L87.4011 19.5381Z" fill="#D7A461"/>
<path d="M81.8315 40.1921L80.3815 37.6821L56.8115 51.2921C56.1515 50.8221 55.3515 50.5321 54.4815 50.5321C53.4415 50.5321 52.5015 50.9421 51.7915 51.5921L35.5115 42.1921L34.0615 44.7021L50.5215 54.2121C50.5215 54.3221 50.4915 54.4221 50.4915 54.5321C50.4915 56.7421 52.2815 58.5321 54.4815 58.5321C56.6815 58.5321 58.4815 56.7421 58.4815 54.5321C58.4815 54.2521 58.4515 53.9921 58.4015 53.7321L81.8315 40.2021V40.1921Z" fill="white"/>
<path d="M55.9215 13.922V14.262H53.0215V13.502C54.0015 13.602 54.9715 13.742 55.9215 13.922Z" fill="white"/>
<path d="M27.0319 25.0221L24.9819 27.0721L21.7119 23.8021C22.4219 23.1521 23.1619 22.5121 23.9219 21.9121L27.0319 25.0221Z" fill="white"/>
<path d="M14.2216 53.0723V55.9623H9.0016C8.9316 55.0123 8.8916 54.0423 8.8916 53.0723H14.2216Z" fill="white"/>
<path d="M27.0315 84.0119L25.5815 85.4619C24.7915 84.9019 24.0215 84.3119 23.2715 83.6719L24.9815 81.9619L27.0315 84.0119Z" fill="white"/>
</g>
<defs>
<clipPath id="clip0_632_597">
<rect width="108.26" height="108.26" fill="white" transform="translate(0.351562 0.39209)"/>
</clipPath>
</defs>
</svg>
