<svg width="133" height="111" viewBox="0 0 133 111" fill="none" xmlns="http://www.w3.org/2000/svg">
<g clip-path="url(#clip0_632_588)">
<path d="M112.372 18.7522L116.142 9.13221L113.582 5.01221L106.882 22.1122L125.172 23.7222L122.662 19.6622L112.372 18.7522Z" fill="#D7A461"/>
<path d="M132.602 19.1021L130.082 15.0421L119.792 14.1421L123.562 4.51209L121.012 0.39209L114.312 17.4921L132.602 19.1021Z" fill="#D7A461"/>
<path d="M105.012 23.302L108.772 13.682L106.222 9.56201L100.422 24.362L88.5316 31.722C79.5616 18.202 64.6216 10.152 48.4516 10.152C21.9316 10.152 0.351562 31.722 0.351562 58.242C0.351562 84.762 21.9316 106.322 48.4516 106.322C74.9716 106.322 96.5316 84.752 96.5316 58.242C96.5316 49.812 94.3016 41.522 90.0916 34.222L101.962 26.882L117.822 28.272L115.302 24.212L105.012 23.302ZM48.4516 104.412C22.9816 104.412 2.27156 83.702 2.27156 58.242C2.27156 32.782 22.9816 12.062 48.4516 12.062C63.9616 12.062 78.2816 19.782 86.9016 32.742L80.8416 36.492C73.5516 25.652 61.4816 19.202 48.4416 19.202C26.9116 19.202 9.40156 36.712 9.40156 58.242C9.40156 79.772 26.9116 97.282 48.4416 97.282C69.9716 97.282 87.4916 79.772 87.4916 58.242C87.4916 51.492 85.7316 44.842 82.3916 38.992L88.4616 35.242C92.4916 42.232 94.6216 50.172 94.6216 58.242C94.6216 83.702 73.9116 104.422 48.4616 104.422L48.4516 104.412ZM48.4516 86.742C32.7316 86.742 19.9316 73.952 19.9316 58.242C19.9316 42.532 32.7216 29.742 48.4516 29.742C57.8116 29.742 66.5216 34.332 71.8716 42.052L63.9216 46.972C60.3116 42.022 54.5616 39.082 48.4416 39.082C37.8816 39.082 29.2816 47.682 29.2816 58.252C29.2816 68.822 37.8716 77.422 48.4416 77.422C59.0116 77.422 67.6116 68.822 67.6116 58.252C67.6116 55.192 66.8716 52.172 65.4716 49.472L73.4216 44.552C75.7316 48.742 76.9516 53.462 76.9516 58.252C76.9516 73.972 64.1716 86.752 48.4616 86.752L48.4516 86.742ZM48.4416 75.492C38.9316 75.492 31.1916 67.752 31.1916 58.242C31.1916 48.732 38.9316 40.992 48.4416 40.992C53.9116 40.992 59.0416 43.592 62.2916 47.972L51.0916 54.912C50.3416 54.312 49.4216 53.992 48.4516 53.992C46.1016 53.992 44.1916 55.902 44.1916 58.252C44.1916 60.602 46.1016 62.512 48.4516 62.512C50.8016 62.512 52.7216 60.602 52.7216 58.252C52.7216 57.992 52.6916 57.722 52.6216 57.422L63.8416 50.472C65.0716 52.882 65.7116 55.562 65.7116 58.252C65.7116 67.762 57.9716 75.502 48.4516 75.502L48.4416 75.492ZM73.5116 41.032C67.8016 32.752 58.4816 27.832 48.4516 27.832C31.6716 27.832 18.0316 41.472 18.0316 58.242C18.0316 75.012 31.6816 88.652 48.4516 88.652C65.2216 88.652 78.8616 75.012 78.8616 58.242C78.8616 53.112 77.5416 48.042 75.0516 43.522L80.7616 39.992C83.9116 45.542 85.5716 51.842 85.5716 58.242C85.5716 78.712 68.9116 95.372 48.4416 95.372C27.9716 95.372 11.3016 78.712 11.3016 58.242C11.3016 37.772 27.9616 21.112 48.4316 21.112C60.8016 21.112 72.2616 27.222 79.2016 37.492L73.5016 41.022L73.5116 41.032Z" fill="#D7A461"/>
<path d="M59.1115 110.882C81.0925 110.882 98.9115 93.0632 98.9115 71.0822C98.9115 49.1013 81.0925 31.2822 59.1115 31.2822C37.1306 31.2822 19.3115 49.1013 19.3115 71.0822C19.3115 93.0632 37.1306 110.882 59.1115 110.882Z" fill="#D7A461"/>
<path d="M82.432 38.9119C81.272 38.4319 80.152 37.8619 79.082 37.2119C79.132 37.2819 79.1819 37.3519 79.2319 37.4219L73.532 40.9519C70.662 36.7919 66.872 33.4919 62.542 31.2319C61.252 31.4219 59.942 31.5319 58.642 31.5619C63.922 33.5819 68.562 37.1719 71.902 41.9719L63.952 46.8919C60.3419 41.9419 54.592 39.0019 48.472 39.0019C37.912 39.0019 29.312 47.6019 29.312 58.1719C29.312 68.7419 37.902 77.3419 48.472 77.3419C59.042 77.3419 67.642 68.7419 67.642 58.1719C67.642 55.1119 66.902 52.0919 65.502 49.3919L73.452 44.4719C75.762 48.6619 76.9819 53.3819 76.9819 58.1719C76.9819 73.8919 64.202 86.6719 48.492 86.6719C34.202 86.6719 22.342 76.1119 20.292 62.3919C20.272 62.5219 20.232 62.6319 20.202 62.7519C20.112 64.3419 19.872 65.8719 19.502 67.3419C23.402 79.6319 34.922 88.5719 48.492 88.5719C65.262 88.5719 78.902 74.9319 78.902 58.1619C78.902 53.0319 77.582 47.9619 75.0919 43.4419L80.8019 39.9119C83.952 45.4619 85.612 51.7619 85.612 58.1619C85.612 78.6319 68.952 95.2919 48.482 95.2919C37.252 95.2919 27.192 90.2619 20.382 82.3519C21.022 83.6619 21.572 85.0019 22.042 86.3819C22.132 86.6119 22.232 86.8319 22.312 87.0519C29.242 93.3419 38.412 97.1919 48.492 97.1919C70.022 97.1919 87.542 79.6819 87.542 58.1519C87.542 51.4019 85.7819 44.7519 82.4419 38.9019H82.462L82.432 38.9119ZM65.7319 58.1619C65.7319 67.6719 57.992 75.4119 48.472 75.4119C38.952 75.4119 31.222 67.6719 31.222 58.1619C31.222 48.6519 38.962 40.9119 48.472 40.9119C53.942 40.9119 59.072 43.5119 62.322 47.8919L51.122 54.8319C50.372 54.2319 49.452 53.9119 48.482 53.9119C46.132 53.9119 44.222 55.8219 44.222 58.1719C44.222 60.5219 46.132 62.4319 48.482 62.4319C50.832 62.4319 52.752 60.5219 52.752 58.1719C52.752 57.9119 52.722 57.6419 52.652 57.3419L63.872 50.3919C65.102 52.8019 65.742 55.4819 65.742 58.1719L65.7319 58.1619Z" fill="white"/>
<path d="M96.2418 55.2619C95.4718 54.1219 94.7718 52.9219 94.1518 51.6919C94.4618 53.8319 94.6418 56.0019 94.6418 58.1819C94.6418 83.6419 73.9318 104.362 48.4818 104.362C43.5618 104.362 38.8318 103.582 34.3818 102.152C35.8418 103.032 37.2118 104.062 38.4818 105.212C41.7118 105.902 45.0518 106.262 48.4818 106.262C74.9918 106.262 96.5618 84.6919 96.5618 58.1819C96.5618 57.3519 96.5318 56.5119 96.4918 55.6819C96.4018 55.5419 96.3318 55.4019 96.2518 55.2619H96.2418Z" fill="white"/>
</g>
<defs>
<clipPath id="clip0_632_588">
<rect width="132.25" height="110.5" fill="white" transform="translate(0.351562 0.39209)"/>
</clipPath>
</defs>
</svg>
