<svg width="108" height="108" viewBox="0 0 108 108" fill="none" xmlns="http://www.w3.org/2000/svg">
<g clip-path="url(#clip0_632_578)">
<path d="M63.1014 10.2119H44.0614C32.7892 10.2119 23.6514 19.3498 23.6514 30.6219V71.8619C23.6514 83.134 32.7892 92.2719 44.0614 92.2719H63.1014C74.3735 92.2719 83.5114 83.134 83.5114 71.8619V30.6219C83.5114 19.3498 74.3735 10.2119 63.1014 10.2119Z" fill="#D7A461"/>
<path d="M38.2516 101.712C23.5016 101.712 11.4316 89.6419 11.4316 74.8919V51.2419C11.4316 36.4919 23.5016 24.4219 38.2516 24.4219H40.9916C55.7416 24.4219 67.8116 36.4919 67.8116 51.2419V74.8919" stroke="#D7A461" stroke-width="2" stroke-miterlimit="10"/>
<path d="M4.72203 58.0117H11.442V80.2017H4.72203C2.85203 80.2017 1.33203 78.6817 1.33203 76.8117V61.4017C1.33203 59.5317 2.85203 58.0117 4.72203 58.0117Z" stroke="#D7A461" stroke-width="1.95" stroke-miterlimit="10"/>
<path d="M74.5319 80.2119H67.8119V58.0219H74.5319C76.4019 58.0219 77.9219 59.5419 77.9219 61.4119V76.8219C77.9219 78.6919 76.4019 80.2119 74.5319 80.2119Z" stroke="#D7A461" stroke-width="1.95" stroke-miterlimit="10"/>
<path d="M42.0525 106.492C44.8084 106.492 47.0425 104.258 47.0425 101.502C47.0425 98.7458 44.8084 96.5117 42.0525 96.5117C39.2966 96.5117 37.0625 98.7458 37.0625 101.502C37.0625 104.258 39.2966 106.492 42.0525 106.492Z" stroke="#D7A461" stroke-width="2" stroke-miterlimit="10"/>
<path d="M22.7715 29.3819C24.5115 27.9719 28.3615 26.0819 32.1815 25.1219C34.1315 24.6419 36.1715 24.4219 38.2515 24.4219H40.9915C55.7415 24.4219 67.8115 36.4919 67.8115 51.2419V74.8919" stroke="white" stroke-width="2" stroke-miterlimit="10"/>
<path d="M74.5319 80.2119H67.8119V58.0219H74.5319C76.4019 58.0219 77.9219 59.5419 77.9219 61.4119V76.8219C77.9219 78.6919 76.4019 80.2119 74.5319 80.2119Z" stroke="white" stroke-width="1.95" stroke-miterlimit="10"/>
<path d="M97.0119 45.7621C97.8719 47.8021 99.2419 49.7821 101.302 50.5821C103.362 51.3821 106.152 50.5221 106.792 48.4021C109.692 55.2021 99.3419 68.2521 87.8819 57.0921C83.6919 53.0121 81.5919 47.3621 79.8619 41.7721C76.9919 32.5421 73.5319 22.7821 65.9919 16.2721C62.5219 13.2721 54.1619 16.1121 56.1219 10.2121C58.0819 4.31209 63.2919 0.39209 71.5219 0.39209C79.3019 0.39209 86.7919 5.81209 90.9519 12.4021C97.5919 22.9321 92.4519 34.9221 97.0119 45.7621Z" fill="#D7A461"/>
</g>
<defs>
<clipPath id="clip0_632_578">
<rect width="106.94" height="107.1" fill="white" transform="translate(0.351562 0.39209)"/>
</clipPath>
</defs>
</svg>
