<svg width="124" height="140" viewBox="0 0 124 140" fill="none" xmlns="http://www.w3.org/2000/svg">
<g clip-path="url(#clip0_632_542)">
<path d="M123.112 78.8819C118.932 75.0919 114.742 71.3219 110.542 67.5519L106.952 64.3319L106.682 64.0919C106.372 63.8219 106.052 63.5419 105.752 63.1919C104.612 61.8719 102.952 61.3619 101.202 60.8219C100.832 60.7119 100.452 60.5919 100.092 60.4719C97.3916 59.5819 94.6916 58.7019 91.9916 57.8119C92.0316 58.5219 91.9716 59.2419 91.8116 59.9519C94.6116 60.8619 97.4716 61.7919 100.402 62.7319C101.982 63.2419 102.662 64.1719 102.662 65.8219C102.622 85.3719 102.632 104.772 102.662 122.822C102.662 124.142 102.062 124.932 100.812 125.242C96.8916 126.222 92.9816 127.222 89.0716 128.212L63.8116 134.642C62.0116 135.102 60.2116 135.562 58.3316 136.052L54.6416 137.002V120.402C54.6416 105.822 54.6416 91.2419 54.6216 76.6619C54.6216 75.5019 54.5516 75.3919 53.5016 75.0219C49.9216 73.7619 46.3416 72.5219 42.7516 71.2819L23.3116 64.5519C23.2016 64.5119 22.6416 64.3119 21.9516 64.0619C21.0116 63.7219 21.1016 62.3719 22.0716 62.1419L28.3416 60.7019C33.0016 59.6119 37.6716 58.5119 42.3316 57.4219L48.9116 55.8919C54.0716 54.6919 59.2316 53.5019 64.3716 52.2619C65.9816 51.8719 67.3816 51.9219 68.9016 52.4319C72.3016 53.5619 75.7616 54.7119 79.2916 55.8719C79.6116 55.2119 80.0116 54.6019 80.5016 54.0519L74.4916 52.0819C72.1516 51.3119 69.7316 50.5119 67.3516 49.7719C67.0016 49.6619 66.5216 49.6519 66.1216 49.7419C61.0816 50.9019 56.0416 52.0819 51.0016 53.2619L44.7416 54.7219C34.9516 57.0119 25.1516 59.2919 15.3616 61.5619C14.6316 61.7319 14.1716 62.0719 13.8016 62.7119C11.3716 66.9719 8.93156 71.2319 6.49156 75.4819L0.351562 86.1619V86.9019C0.651563 87.3219 1.12156 87.6019 1.87156 87.8619C3.47156 88.4019 5.06156 88.9519 6.65156 89.5119C8.81156 90.2619 10.9716 91.0119 13.1416 91.7319C14.9516 92.3219 15.1816 93.6119 15.1716 94.6719C15.1416 102.642 15.1416 110.612 15.1416 118.572V124.772C15.1416 125.779 15.6182 126.445 16.5716 126.772C24.3316 129.422 32.1016 132.072 39.8616 134.712L45.0216 136.472C47.6316 137.362 50.3316 138.292 52.9916 139.152C53.3516 139.272 53.8516 139.272 54.2716 139.172C65.4216 136.372 76.5516 133.542 87.6916 130.702C93.0016 129.352 98.3016 127.992 103.612 126.622C104.422 126.412 104.672 126.082 104.712 125.222C104.722 124.902 104.722 124.582 104.712 124.262V65.1419L118.032 77.0619L111.122 74.5219C110.432 74.3419 110.162 74.8619 110.072 75.1719C109.832 75.9819 110.332 76.2319 110.492 76.3119C111.462 76.7919 112.482 77.1719 113.562 77.5719L114.182 77.8019C116.742 78.7619 119.312 79.7019 121.882 80.6419C122.582 80.8919 123.102 80.7619 123.362 80.5419C123.582 80.3619 123.662 80.1019 123.612 79.7619C123.572 79.4919 123.342 79.1019 123.092 78.8719L123.112 78.8819ZM52.5616 134.122C52.5616 134.362 52.5416 134.602 52.5216 134.872L52.4016 136.642L50.7416 136.232C50.5416 136.182 50.3816 136.142 50.2216 136.092C45.8916 134.612 41.5516 133.142 37.2216 131.652L32.3516 129.982C27.9416 128.472 23.5216 126.952 19.1016 125.472C17.7916 125.032 17.2116 124.222 17.2116 122.852C17.2316 116.392 17.2316 109.942 17.2316 103.492V96.0619C17.2316 95.8019 17.2516 95.5319 17.2816 95.2419L17.4216 93.3819L19.2316 93.9019C19.4816 93.9719 19.6916 94.0319 19.9016 94.1019L35.9116 99.6419C36.9516 100.002 37.2916 99.8819 37.9016 98.9219C38.0016 98.7619 38.1116 98.6019 38.2216 98.4519L40.3416 95.3819C42.6116 92.1019 44.8816 88.8219 47.1216 85.5219C47.2716 85.3019 47.3516 84.8619 47.3316 84.5019C47.3316 84.3719 47.2916 84.0219 46.5316 83.8219C45.9916 83.6819 45.4816 84.3119 45.2916 84.5919L42.6016 88.4819C40.8516 91.0019 39.1116 93.5219 37.3816 96.0519C36.6716 97.0919 35.7316 97.3819 34.5016 96.9619C28.5916 94.8819 22.6616 92.8419 16.7416 90.7919L3.26156 86.1319L3.62156 84.8519C3.66156 84.6819 3.71156 84.4819 3.83156 84.2619L6.94156 78.8519C9.48156 74.4219 12.0316 70.0019 14.5616 65.5619C14.9616 64.8519 15.7416 64.1119 17.1316 64.6219C18.3616 65.0619 19.5916 65.4819 20.8316 65.9119L29.2216 68.8119C36.3316 71.2719 43.4516 73.7419 50.5716 76.1719C51.9616 76.6419 52.5816 77.5219 52.5816 79.0219C52.5616 93.2819 52.5616 107.552 52.5616 121.812V134.122Z" fill="#D7A461"/>
<path d="M64.5115 111.162C64.4115 110.952 64.2315 110.572 63.3615 110.572C63.3615 110.572 44.1715 115.682 39.6015 116.902C31.7415 118.942 21.5215 121.612 21.3815 121.662C20.8015 121.902 20.5515 122.362 20.7115 122.872C20.9915 123.822 21.6715 123.652 21.9015 123.592C25.0415 122.792 61.1415 113.292 63.4515 112.682C64.0015 112.542 64.3715 112.282 64.5315 111.932C64.6515 111.682 64.6415 111.402 64.5315 111.152L64.5115 111.162Z" fill="#D7A461"/>
<path d="M48.8211 64.1421C49.5911 64.8121 50.6911 63.8721 50.1411 63.0121C48.7511 60.8121 46.3011 55.3521 45.5111 52.7921C41.9911 42.5221 47.3411 33.7721 50.5311 27.4521C52.7811 23.0121 55.6411 18.8821 58.2311 14.6221C58.3011 14.5121 58.4411 14.4521 58.6911 14.2521L61.5211 16.0521C62.7011 16.8021 64.2111 15.7621 63.9311 14.3921L61.3411 1.67212C61.1611 0.792119 60.2911 0.232119 59.4211 0.442119L47.2111 4.16212C45.8111 4.49212 45.5311 6.36212 46.7811 7.08212L49.3211 8.27212C48.8011 9.09212 48.3811 9.76212 47.9511 10.4321C44.8811 15.1821 41.7711 19.9221 39.9311 25.3321C38.2711 30.2321 35.5911 36.3721 36.7311 44.2121C37.2111 47.4621 38.5911 51.6321 40.3511 54.4321C42.1111 57.2321 46.0711 61.7421 48.8111 64.1521L48.8211 64.1421Z" fill="#D7A461"/>
<path d="M48.8211 64.1421C49.5911 64.8121 50.6911 63.8721 50.1411 63.0121C48.7511 60.8121 46.3011 55.3521 45.5111 52.7921C41.9911 42.5221 47.3411 33.7721 50.5311 27.4521C52.7811 23.0121 55.6411 18.8821 58.2311 14.6221C58.3011 14.5121 58.4411 14.4521 58.6911 14.2521L61.5211 16.0521C62.7011 16.8021 64.2111 15.7621 63.9311 14.3921L61.3411 1.67212C61.1611 0.792119 60.2911 0.232119 59.4211 0.442119L47.2111 4.16212C45.8111 4.49212 45.5311 6.36212 46.7811 7.08212L49.3211 8.27212C48.8011 9.09212 48.3811 9.76212 47.9511 10.4321C44.8811 15.1821 41.7711 19.9221 39.9311 25.3321C38.2711 30.2321 35.5911 36.3721 36.7311 44.2121C37.2111 47.4621 38.5911 51.6321 40.3511 54.4321C42.1111 57.2321 46.0711 61.7421 48.8111 64.1521L48.8211 64.1421Z" fill="#D7A461"/>
<path d="M94.1413 64.3821C94.1413 75.7221 94.1413 87.0621 94.1213 98.4021C94.1213 99.5321 94.0713 100.732 93.7613 101.782C92.8313 104.992 90.9113 107.392 88.4213 109.042C81.9113 113.362 75.2713 113.372 68.7613 109.142C64.9713 106.682 62.8213 102.892 62.8313 97.6221C62.8713 75.3621 62.8513 53.1021 62.8213 30.8421C62.8213 28.8921 63.2213 27.1521 63.9613 25.4221C65.5513 21.7221 68.2713 19.6221 71.4313 18.0421C74.0113 16.7521 76.7013 16.7021 79.4413 16.6921C83.2213 16.6721 86.6013 17.9421 89.5813 20.5521C92.4613 23.0721 94.2213 26.2421 94.1813 30.6721C94.0813 41.9021 94.1513 53.1421 94.1513 64.3721L94.1413 64.3821ZM87.9713 94.0721C87.9713 95.0121 87.9413 95.9721 88.1013 96.8921C88.1613 97.2721 88.6813 97.7921 89.0013 97.7921C89.3713 97.7921 89.9813 97.3821 90.0713 97.0121C90.2713 96.2321 90.2313 95.3621 90.2313 94.5221C90.2313 86.6521 90.2313 78.7821 90.2313 70.9121C90.2313 58.6321 90.2313 46.3521 90.2313 34.0721C90.2313 33.5521 90.2513 33.0221 90.2313 32.5021C90.2113 31.6821 89.9113 31.0121 89.1613 30.9521C88.3713 30.8921 88.0513 31.5321 88.0213 32.3721C87.9913 33.3121 87.9813 34.2621 87.9813 35.2021C87.9813 45.0721 87.9813 54.9321 87.9813 64.8021C87.9813 74.5621 87.9813 84.3221 87.9813 94.0821L87.9713 94.0721Z" fill="#D7A461"/>
<path d="M78.2015 113.982C77.8415 113.982 77.4715 113.982 77.1115 113.982C74.3115 113.902 74.0015 114.212 72.9715 117.202C72.6015 118.272 72.8215 119.042 73.3615 119.792C73.9115 120.562 74.6515 120.432 75.3515 120.082C75.6815 119.922 75.9815 119.672 76.3015 119.462C76.6515 119.232 76.9915 119.122 77.0215 119.772C77.0715 120.892 77.2915 122.012 78.4015 122.112C79.5915 122.212 80.1215 121.112 80.3615 119.932C80.5115 119.172 80.6715 119.172 81.1915 119.602C81.6115 119.952 82.1515 120.212 82.6615 120.282C83.4915 120.392 84.0515 119.872 84.2015 118.902C84.4615 117.322 83.7715 116.102 83.0815 114.842C82.4615 113.702 81.5715 113.902 80.6615 113.942C79.8415 113.972 79.0215 113.942 78.2015 113.942V113.982Z" fill="#D7A461"/>
<path d="M78.7411 14.942C79.2811 14.942 79.8311 14.992 80.3711 14.932C81.1411 14.832 82.1911 14.962 82.6211 14.442C83.5411 13.342 84.2811 11.932 84.2211 10.262C84.1711 8.862 82.9811 7.932 81.8711 8.802C80.5511 9.842 80.3911 9.222 79.9911 7.992C79.7411 7.192 79.1211 6.632 78.2611 6.802C77.3911 6.962 77.0611 7.662 77.0611 8.602C77.0611 9.712 76.8011 9.792 76.0211 9.172C75.5411 8.792 74.8511 8.632 74.2511 8.632C73.2511 8.632 72.4611 9.672 72.7811 10.732C73.1811 12.092 73.8411 13.362 74.5111 14.582C74.6811 14.892 75.3211 14.952 75.7411 14.972C76.7411 15.022 77.7411 14.992 78.7411 14.992V14.952V14.942Z" fill="#D7A461"/>
</g>
<defs>
<clipPath id="clip0_632_542">
<rect width="123.29" height="138.85" fill="white" transform="translate(0.351562 0.39209)"/>
</clipPath>
</defs>
</svg>
