<svg width="132" height="111" viewBox="0 0 132 111" fill="none" xmlns="http://www.w3.org/2000/svg">
<g clip-path="url(#clip0_632_554)">
<path d="M38.5517 108.792C39.6784 108.792 40.5917 102.985 40.5917 95.8221C40.5917 88.6589 39.6784 82.8521 38.5517 82.8521C37.4251 82.8521 36.5117 88.6589 36.5117 95.8221C36.5117 102.985 37.4251 108.792 38.5517 108.792Z" fill="#D7A461"/>
<path d="M21.0418 3.42191C21.8118 2.75191 22.9118 3.69191 22.3618 4.55191C20.9718 6.75191 18.5218 12.2119 17.7318 14.7719C14.2118 25.0419 19.5618 33.7919 22.7518 40.1119C25.0018 44.5519 27.8618 48.6819 30.4518 52.9419C30.5218 53.0519 30.6618 53.1119 30.9118 53.3119L33.7418 51.5119C34.9218 50.7619 36.4318 51.8019 36.1518 53.1719L33.5618 65.8919C33.3818 66.7719 32.5118 67.3319 31.6418 67.1219L19.4318 63.4019C18.0318 63.0719 17.7518 61.2019 19.0018 60.4819L21.5418 59.2919C21.0218 58.4719 20.6018 57.8019 20.1718 57.1319C17.1018 52.3819 13.9918 47.6419 12.1518 42.2319C10.4918 37.3319 7.81181 31.1919 8.95181 23.3519C9.43181 20.1019 10.8118 15.9319 12.5718 13.1319C14.3318 10.3319 18.2918 5.82191 21.0318 3.41191L21.0418 3.42191Z" fill="#D7A461"/>
<path d="M21.0418 3.42191C21.8118 2.75191 22.9118 3.69191 22.3618 4.55191C20.9718 6.75191 18.5218 12.2119 17.7318 14.7719C14.2118 25.0419 19.5618 33.7919 22.7518 40.1119C25.0018 44.5519 27.8618 48.6819 30.4518 52.9419C30.5218 53.0519 30.6618 53.1119 30.9118 53.3119L33.7418 51.5119C34.9218 50.7619 36.4318 51.8019 36.1518 53.1719L33.5618 65.8919C33.3818 66.7719 32.5118 67.3319 31.6418 67.1219L19.4318 63.4019C18.0318 63.0719 17.7518 61.2019 19.0018 60.4819L21.5418 59.2919C21.0218 58.4719 20.6018 57.8019 20.1718 57.1319C17.1018 52.3819 13.9918 47.6419 12.1518 42.2319C10.4918 37.3319 7.81181 31.1919 8.95181 23.3519C9.43181 20.1019 10.8118 15.9319 12.5718 13.1319C14.3318 10.3319 18.2918 5.82191 21.0318 3.41191L21.0418 3.42191Z" fill="#D7A461"/>
<path d="M119.191 56.5819H62.8712C60.7312 56.5819 58.9912 54.9119 58.9912 52.8419V32.5419C58.9912 30.4419 60.7912 28.7519 62.9712 28.8019L119.281 29.4219C121.381 29.4719 123.061 31.1319 123.061 33.1619V52.8419C123.061 54.9019 121.321 56.5819 119.181 56.5819H119.191Z" stroke="#D7A461" stroke-width="2" stroke-miterlimit="10"/>
<path d="M53.3717 77.102L52.6717 76.812L49.6617 75.572C48.0317 74.902 46.9717 73.292 46.9717 71.502V56.582" stroke="#D7A461" stroke-width="2" stroke-miterlimit="10"/>
<path d="M82.1017 18.8621L62.6717 18.3321C60.2517 18.2721 57.8417 18.7621 55.6417 19.7721L49.9717 22.3821C48.8917 22.9221 48.0617 23.2921 47.5517 23.8421C47.1717 24.2321 46.9717 24.7321 46.9717 25.4421V35.1921" stroke="#D7A461" stroke-width="2" stroke-linecap="round" stroke-linejoin="round"/>
<path d="M46.9717 27.4923V17.2823C46.9717 12.3523 55.6417 9.29229 58.4817 9.09229L99.3217 9.91229C100.862 9.91229 105.842 10.8023 107.622 12.8323L112.422 18.1923C113.292 19.1723 114.542 19.7223 115.852 19.7223H116.102C117.962 19.7223 119.632 20.8923 120.282 22.6423L123.052 30.1723V74.3023C123.052 76.4523 121.392 78.2123 119.302 78.2923" stroke="#D7A461" stroke-width="2" stroke-miterlimit="10"/>
<path d="M121.002 81.4423L120.822 97.2623C120.822 99.3423 119.142 101.022 117.062 101.022L59.9818 102.412C57.9018 102.412 56.2218 100.732 56.2218 98.6523V97.9523C56.2218 96.6423 55.6318 95.4223 54.6518 94.5523C53.8618 93.8623 53.3718 92.8723 53.3718 91.7523V80.1223C53.3718 79.0423 52.7418 78.0723 51.7518 77.6323C51.7518 77.6323 50.6018 76.1123 50.5418 76.0723C49.3918 75.4423 52.6818 76.8623 52.6818 76.8623L53.9718 77.3423L57.5718 78.8223C58.7018 79.2923 59.9118 79.5223 61.1418 79.4923L72.2518 79.2623L110.112 78.4923L119.222 78.3023C119.222 78.3023 119.282 78.3023 119.312 78.2923C120.322 78.9723 121.002 80.1223 121.002 81.4323V81.4423Z" stroke="#D7A461" stroke-width="2" stroke-miterlimit="10"/>
<path d="M110.112 78.502L107.222 92.792C106.962 94.282 105.672 95.372 104.172 95.372L78.672 96.532C77.052 96.532 75.672 95.372 75.392 93.782L72.252 79.2719L110.112 78.502Z" fill="#D7A461" stroke="#D7A461" stroke-width="2" stroke-miterlimit="10"/>
<path d="M67.4117 87.3521H59.9417C59.1298 87.3521 58.4717 88.0102 58.4717 88.8221V90.7921C58.4717 91.6039 59.1298 92.2621 59.9417 92.2621H67.4117C68.2235 92.2621 68.8817 91.6039 68.8817 90.7921V88.8221C68.8817 88.0102 68.2235 87.3521 67.4117 87.3521Z" stroke="#D7A461" stroke-width="2" stroke-miterlimit="10"/>
<path d="M109.752 110.722H101.972C101.032 110.722 100.262 109.962 100.262 109.012V105.042L114.162 104.502V106.302C114.162 108.742 112.182 110.722 109.742 110.722H109.752Z" fill="#D7A461"/>
<path d="M121.002 87.3521V92.2621H114.602C113.792 92.2621 113.132 91.6021 113.132 90.7821V88.8221C113.132 88.0121 113.792 87.3521 114.602 87.3521H121.002Z" stroke="#D7A461" stroke-width="2" stroke-miterlimit="10"/>
<path d="M63.0614 105.822V108.892C63.0614 109.902 62.2414 110.732 61.2214 110.732H48.2514C48.2514 110.732 48.2214 110.732 48.2014 110.732C48.1914 110.732 48.1814 110.732 48.1614 110.732C46.8814 110.732 45.7914 107.152 45.3514 102.102C45.2214 100.602 45.1514 98.9722 45.1514 97.2622C45.1514 93.0922 45.5814 89.3522 46.2514 86.8822C46.2514 86.8822 46.2414 86.8822 46.2514 86.8722C46.7714 84.9622 47.4314 83.8022 48.1614 83.8022C49.8314 83.8022 51.1814 89.8322 51.1814 97.2622C51.1814 99.7222 51.0314 102.012 50.7714 103.992C50.6514 104.962 51.3914 105.822 52.3614 105.822H63.0614Z" fill="#D7A461"/>
<path d="M123.071 35.1819H128.201C129.681 35.1819 130.871 36.3819 130.871 37.8519V53.8919C130.871 55.3719 129.671 56.5619 128.201 56.5619H123.071V35.1719V35.1819Z" stroke="#D7A461" stroke-width="2" stroke-miterlimit="10"/>
<path d="M51.302 35.1919V56.5819H46.172C44.702 56.5819 43.502 55.3819 43.502 53.9119V37.8619C43.502 36.3919 44.702 35.1919 46.172 35.1919H51.302Z" stroke="#D7A461" stroke-width="2" stroke-miterlimit="10"/>
<path d="M34.0711 88.4819C31.3311 78.9019 24.3011 70.2219 7.16113 71.0819" stroke="#D7A461" stroke-width="2" stroke-miterlimit="10" stroke-linecap="round"/>
<path d="M5.85156 61.2421C9.00156 36.5821 23.8516 18.3221 40.0816 6.87207V18.3221" stroke="#D7A461" stroke-width="2" stroke-miterlimit="10" stroke-linecap="round"/>
<path d="M40.8115 6.29187C48.6515 0.371872 65.7215 1.30187 78.2115 1.69187" stroke="#D7A461" stroke-width="2" stroke-linecap="round" stroke-linejoin="round"/>
<path d="M78.2119 85.4023L105.182 84.8823" stroke="white" stroke-width="2" stroke-linecap="round" stroke-linejoin="round"/>
<path d="M80.6016 91.8421L104.012 90.9321" stroke="white" stroke-width="2" stroke-linecap="round" stroke-linejoin="round"/>
<path d="M117.072 77.082L63.6816 78.822V65.532C63.6816 64.382 64.6216 63.452 65.7816 63.462L115.032 64.102C116.162 64.112 117.072 65.042 117.072 66.172V77.092V77.082Z" fill="#D7A461" stroke="#D7A461" stroke-width="2" stroke-miterlimit="10"/>
<path d="M95.3315 72.3521H87.9515C87.46 72.3521 87.0615 72.7505 87.0615 73.2421V75.6521C87.0615 76.1436 87.46 76.5421 87.9515 76.5421H95.3315C95.8231 76.5421 96.2215 76.1436 96.2215 75.6521V73.2421C96.2215 72.7505 95.8231 72.3521 95.3315 72.3521Z" fill="white"/>
</g>
<defs>
<clipPath id="clip0_632_554">
<rect width="131.52" height="110.34" fill="white" transform="translate(0.351562 0.39209)"/>
</clipPath>
</defs>
</svg>
