<svg width="107" height="166" viewBox="0 0 107 166" fill="none" xmlns="http://www.w3.org/2000/svg">
<g clip-path="url(#clip0_633_628)">
<path d="M52.6514 106.192V162.792C52.6514 164.292 51.0514 165.292 49.7514 164.492L37.8514 156.692C37.0514 156.292 36.1514 156.292 35.4514 156.692L23.5514 164.492C22.2514 165.192 20.6514 164.292 20.6514 162.792V94.792" stroke="#D8A561" stroke-width="2" stroke-miterlimit="10"/>
<path d="M84.8516 94.792V138.292C84.8516 139.792 83.2516 140.792 81.9516 139.992L70.0516 132.192C69.2516 131.792 68.3516 131.792 67.6516 132.192L55.7516 139.992C54.4516 140.692 52.8516 139.792 52.8516 138.292V106.192" stroke="#D8A561" stroke-width="2" stroke-miterlimit="10"/>
<path d="M104.052 58.7919C104.052 64.0919 99.3516 68.5919 97.7516 73.3919C96.1516 78.3919 97.2516 84.7919 94.2516 88.8919C91.2516 93.0919 84.7516 93.9919 80.5516 96.9919C76.4516 99.9919 73.5516 105.892 68.5516 107.492C63.7516 109.092 58.0516 105.992 52.6516 105.992C47.3516 105.992 41.5516 109.092 36.7516 107.492C31.7516 105.892 28.9516 99.9919 24.7516 96.9919C20.5516 93.9919 14.0516 93.0919 11.0516 88.8919C8.05156 84.7919 9.15156 78.2919 7.55156 73.3919C6.05156 68.6919 1.35156 64.1919 1.35156 58.7919C1.35156 53.4919 6.05156 48.9919 7.65156 44.1919C9.25156 39.1919 8.15156 32.7919 11.1516 28.6919C14.1516 24.4919 20.6516 23.5919 24.8516 20.5919C28.9516 17.5919 31.8516 11.6919 36.8516 10.0919C41.6516 8.49195 47.3516 11.5919 52.7516 11.5919C58.0516 11.5919 63.8516 8.49195 68.6516 10.0919C73.6516 11.6919 76.4516 17.5919 80.6516 20.5919C84.8516 23.5919 91.3516 24.4919 94.3516 28.6919C97.3516 32.7919 96.2516 39.2919 97.8516 44.1919C99.2516 48.9919 104.052 53.4919 104.052 58.7919Z" stroke="#D8A561" stroke-width="2" stroke-miterlimit="10"/>
<path d="M62.6518 87.5921C86.7314 87.5921 106.252 68.0717 106.252 43.9921C106.252 19.9125 86.7314 0.39209 62.6518 0.39209C38.5721 0.39209 19.0518 19.9125 19.0518 43.9921C19.0518 68.0717 38.5721 87.5921 62.6518 87.5921Z" fill="#D8A561"/>
<path d="M48.0518 65.5921H57.7518V34.4921H50.0518V30.9921C53.9518 30.2921 56.6518 29.2921 59.0518 27.8921H63.2518V65.5921H71.9518V70.0921H48.0518V65.5921Z" fill="white"/>
<path d="M79.9516 21.3921C81.7516 22.6921 83.8516 23.5921 85.8516 24.4921C88.8516 25.7921 91.7516 26.9921 93.4516 29.2921C95.0516 31.5921 95.3516 34.6921 95.6516 37.8921C95.8516 40.0921 96.0516 42.3921 96.7516 44.4921C97.3516 46.4921 98.5516 48.3921 99.6516 50.2921C101.252 52.9921 102.952 55.8921 102.952 58.7921C102.952 59.7921 102.752 60.8921 102.352 61.8921C102.352 61.8921 103.952 58.2921 104.552 56.1921C103.952 53.5921 102.652 51.5921 101.252 49.2921C100.152 47.3921 99.1516 45.6921 98.5516 43.8921C97.9516 41.9921 97.7516 39.7921 97.5516 37.6921C97.2516 34.2921 96.9516 30.7921 94.9516 28.0921C92.9516 25.3921 89.6516 23.9921 86.5516 22.5921C84.5516 21.6921 82.6516 20.8921 81.0516 19.7921C79.5516 18.6921 78.1516 17.0921 76.7516 15.4921C74.4516 12.8921 72.1516 10.1921 68.8516 9.19213C65.7516 8.19213 62.2516 8.99213 58.9516 9.69213C56.8516 10.1921 54.6516 10.6921 52.6516 10.6921C50.6516 10.6921 48.4516 10.1921 46.3516 9.69213C44.4516 9.29213 42.4516 8.79213 40.5516 8.79213C39.5516 9.59213 38.4516 10.2921 37.4516 10.9921C37.4516 10.9921 37.4516 11.0921 37.3516 11.0921C39.9516 10.3921 42.8516 10.9921 45.9516 11.6921C48.1516 12.1921 50.4516 12.6921 52.7516 12.6921C55.0516 12.6921 57.2516 12.1921 59.5516 11.6921C62.7516 10.9921 65.7516 10.2921 68.3516 11.1921C71.1516 12.0921 73.1516 14.4921 75.3516 16.9921C76.6516 18.3921 78.1516 20.0921 79.9516 21.3921Z" fill="white"/>
<path d="M36.5518 107.692V131.792" stroke="#D8A561" stroke-width="2" stroke-miterlimit="10" stroke-linecap="round" stroke-linejoin="bevel"/>
<path d="M68.5518 107.692V118.292" stroke="#D8A561" stroke-width="2" stroke-miterlimit="10" stroke-linecap="round" stroke-linejoin="bevel"/>
<path d="M54.4514 96.2919C76.4323 96.2919 94.2514 78.4728 94.2514 56.4919C94.2514 34.511 76.4323 16.6919 54.4514 16.6919C32.4704 16.6919 14.6514 34.511 14.6514 56.4919C14.6514 78.4728 32.4704 96.2919 54.4514 96.2919Z" stroke="#D8A561" stroke-width="2" stroke-miterlimit="10"/>
</g>
<defs>
<clipPath id="clip0_633_628">
<rect width="105.9" height="165.4" fill="white" transform="translate(0.351562 0.39209)"/>
</clipPath>
</defs>
</svg>
